<svg width="100" xmlns="http://www.w3.org/2000/svg" viewBox="0 0 332.38 107.9"><defs><style>.cls-1{fill:#06bf9d;}.cls-2{fill:#333132;}</style></defs><g id="Layer_2" data-name="Layer 2"><g id="Layer_1-2" data-name="Layer 1"><circle class="cls-1" cx="130.74" cy="54.66" r="25.25"/><path class="cls-2" d="M31.74,36.28a21,21,0,0,1,12.65,4.07,6.1,6.1,0,0,0,4.9,1.4,6.64,6.64,0,0,0,4.45-2.54,6.4,6.4,0,0,0,1.34-5,6.49,6.49,0,0,0-2.54-4.51,32.54,32.54,0,0,0-20.23-7A32,32,0,0,0,9.54,32.08,30.12,30.12,0,0,0,0,54.47,30.3,30.3,0,0,0,9.54,76.92a31.37,31.37,0,0,0,22.77,9.35,34.06,34.06,0,0,0,20.23-6.74,7.38,7.38,0,0,0,2.54-4.64A6.19,6.19,0,0,0,53.74,70a6.68,6.68,0,0,0-4.51-2.54,6,6,0,0,0-4.84,1.27,21.1,21.1,0,0,1-12.72,4.07A17.58,17.58,0,0,1,19,67.38a17.53,17.53,0,0,1,.06-25.63A17.64,17.64,0,0,1,31.74,36.28Z"/><path class="cls-2" d="M95.15,22.67a28.62,28.62,0,0,0-21.56,9.48,31.71,31.71,0,0,0-9,22.58,31.63,31.63,0,0,0,8.9,22.51,28.8,28.8,0,0,0,21.76,9.41A26.93,26.93,0,0,0,116.52,77q8.9-8.65,8.9-21.88a32.57,32.57,0,0,0-8.84-22.84A28.07,28.07,0,0,0,95.15,22.67ZM107,68.08a17.54,17.54,0,0,1-23.92,0A20.6,20.6,0,0,1,78.49,54.6a19.62,19.62,0,0,1,4.57-13.23,17.2,17.2,0,0,1,23.92,0,18.69,18.69,0,0,1,5,13.23A19.6,19.6,0,0,1,107,68.08Z"/><path class="cls-2" d="M165.11,22.67a28.63,28.63,0,0,0-21.56,9.48,31.71,31.71,0,0,0-9,22.58,31.6,31.6,0,0,0,8.91,22.51,28.76,28.76,0,0,0,21.75,9.41A26.92,26.92,0,0,0,186.48,77q8.91-8.65,8.91-21.88a32.62,32.62,0,0,0-8.84-22.84A28.09,28.09,0,0,0,165.11,22.67Zm11.83,45.41a17.53,17.53,0,0,1-23.91,0,20.56,20.56,0,0,1-4.58-13.48A19.58,19.58,0,0,1,153,41.37a17.18,17.18,0,0,1,23.91,0,18.69,18.69,0,0,1,5,13.23A19.6,19.6,0,0,1,176.94,68.08Z"/><path class="cls-2" d="M237.43,22.67a28.19,28.19,0,0,0-16.67,5.2V6.93a6.93,6.93,0,1,0-13.86,0V56.27a7.49,7.49,0,0,0,.1,1.17,31.41,31.41,0,0,0,8.8,19.8,28.79,28.79,0,0,0,21.75,9.41A26.94,26.94,0,0,0,258.8,77q8.9-8.65,8.9-21.88a32.62,32.62,0,0,0-8.84-22.84A28.07,28.07,0,0,0,237.43,22.67Zm11.83,45.41a17.54,17.54,0,0,1-23.92,0,20.61,20.61,0,0,1-4.58-13.48,19.63,19.63,0,0,1,4.58-13.23,17.2,17.2,0,0,1,23.92,0,18.73,18.73,0,0,1,5,13.23A19.64,19.64,0,0,1,249.26,68.08Z"/><path class="cls-2" d="M330.35,24.64a6.73,6.73,0,0,0-4.83-2,6.4,6.4,0,0,0-4.71,1.91,6.55,6.55,0,0,0-1.91,4.83v30a12.4,12.4,0,0,1-3.82,9.22,12.71,12.71,0,0,1-9.28,3.76,12.92,12.92,0,0,1-9.35-3.76,12.3,12.3,0,0,1-3.88-9.22v-30a6.55,6.55,0,0,0-1.91-4.83A6.4,6.4,0,0,0,286,22.67a6.73,6.73,0,0,0-6.74,6.74v30A25.79,25.79,0,0,0,287,78.26a25.45,25.45,0,0,0,18.76,7.88,23.86,23.86,0,0,0,12.08-3A15.8,15.8,0,0,1,312,91.3a15.34,15.34,0,0,1-9,3.3,16.33,16.33,0,0,1-7.63-1.46,7.46,7.46,0,0,0-5.79-.64,6.84,6.84,0,0,0-4,3.18,7.12,7.12,0,0,0-.25,5.28,6.12,6.12,0,0,0,3.56,3.76A29,29,0,0,0,302,107.9a30.18,30.18,0,0,0,30.4-30.4V29.41A6.43,6.43,0,0,0,330.35,24.64Z"/></g></g></svg>
