<svg id="Layer_1" data-name="Layer 1" xmlns="http://www.w3.org/2000/svg" viewBox="0 0 150 150"><defs><style>.cls-1,.cls-3,.cls-6{fill:#fff;}.cls-1{stroke:#664d49;}.cls-1,.cls-2,.cls-3,.cls-4{stroke-linecap:round;stroke-miterlimit:10;}.cls-1,.cls-2{stroke-width:2px;}.cls-2,.cls-8{fill:#5d04d9;}.cls-2,.cls-4{stroke:#5d04d9;}.cls-3{stroke:#fff;}.cls-3,.cls-4{stroke-width:1.11px;}.cls-4{fill:none;}.cls-5{fill:#ff342a;}.cls-7{fill:#664d49;}</style></defs><rect class="cls-1" x="41.38" y="27.29" width="97.74" height="109.23" rx="4.85"/><path class="cls-2" d="M134.27,37h-88a4.85,4.85,0,0,1-4.85-4.85h0a4.85,4.85,0,0,1,4.85-4.85h88a4.85,4.85,0,0,1,4.85,4.85h0A4.85,4.85,0,0,1,134.27,37Z"/><circle class="cls-3" cx="50.15" cy="32.14" r="1.83"/><path class="cls-3" d="M58.45,32.14a1.84,1.84,0,1,1-1.84-1.83A1.83,1.83,0,0,1,58.45,32.14Z"/><path class="cls-3" d="M64.91,32.14a1.84,1.84,0,1,1-1.83-1.83A1.83,1.83,0,0,1,64.91,32.14Z"/><circle class="cls-4" cx="57.26" cy="114.23" r="4.63" transform="translate(-64 73.95) rotate(-45)"/><line class="cls-4" x1="69.94" y1="109.61" x2="127.86" y2="109.61"/><line class="cls-4" x1="69.94" y1="114.23" x2="127.86" y2="114.23"/><line class="cls-4" x1="69.94" y1="118.86" x2="127.86" y2="118.86"/><circle class="cls-4" cx="57.26" cy="56.32" r="4.63" transform="translate(-23.05 56.99) rotate(-45)"/><line class="cls-4" x1="69.94" y1="51.69" x2="127.86" y2="51.69"/><line class="cls-4" x1="69.94" y1="56.32" x2="127.86" y2="56.32"/><line class="cls-4" x1="69.94" y1="60.94" x2="127.86" y2="60.94"/><path class="cls-5" d="M55.25,55.1a8.24,8.24,0,0,1,1.48.76,12.09,12.09,0,0,1,1.29.93l-1.31-.06a17.08,17.08,0,0,1,2.87-2.83,14.45,14.45,0,0,1,1.71-1.13,9.14,9.14,0,0,1,2-.85,10,10,0,0,1-1,1.89A13.36,13.36,0,0,1,61,55.42a16.71,16.71,0,0,1-3,2.66l-.87.59L56.65,58a12.36,12.36,0,0,1-.79-1.38A9.15,9.15,0,0,1,55.25,55.1Z"/><circle class="cls-4" cx="57.26" cy="75.62" r="4.63" transform="translate(-36.7 62.64) rotate(-45)"/><line class="cls-4" x1="69.94" y1="71" x2="127.86" y2="71"/><line class="cls-4" x1="69.94" y1="75.62" x2="127.86" y2="75.62"/><line class="cls-4" x1="69.94" y1="80.25" x2="127.86" y2="80.25"/><path class="cls-5" d="M55.25,74.29a8.24,8.24,0,0,1,1.48.76A12.09,12.09,0,0,1,58,76l-1.31-.06a17.08,17.08,0,0,1,2.87-2.83A14.45,14.45,0,0,1,61.29,72a9.14,9.14,0,0,1,2-.85,10,10,0,0,1-1,1.89A13.36,13.36,0,0,1,61,74.61a16.71,16.71,0,0,1-3,2.66l-.87.59-.44-.65a12.36,12.36,0,0,1-.79-1.38A9.15,9.15,0,0,1,55.25,74.29Z"/><circle class="cls-4" cx="57.26" cy="94.93" r="4.63" transform="translate(-50.35 68.29) rotate(-45)"/><line class="cls-4" x1="69.94" y1="90.3" x2="127.86" y2="90.3"/><line class="cls-4" x1="69.94" y1="94.93" x2="127.86" y2="94.93"/><line class="cls-4" x1="69.94" y1="99.55" x2="127.86" y2="99.55"/><path class="cls-5" d="M55.25,94.33a8.24,8.24,0,0,1,1.48.76A12.09,12.09,0,0,1,58,96L56.71,96a17.08,17.08,0,0,1,2.87-2.83A13.25,13.25,0,0,1,61.29,92a9.16,9.16,0,0,1,2-.86,9.39,9.39,0,0,1-1,1.89A13.36,13.36,0,0,1,61,94.65a16.33,16.33,0,0,1-3,2.66l-.87.6-.44-.66a12.36,12.36,0,0,1-.79-1.38A8.82,8.82,0,0,1,55.25,94.33Z"/><path class="cls-6" d="M41.49,76.8c3.71-2.65,6-6.35,6-10.45,0-8-8.86-14.55-19.79-14.55S7.93,58.31,7.93,66.35,16.79,80.9,27.72,80.9A26.41,26.41,0,0,0,34,80.14l11,3.72Z"/><path class="cls-7" d="M27.72,81.71a24.54,24.54,0,0,1-14.48-4.42c-4-2.91-6.12-6.79-6.12-10.94s2.17-8,6.12-10.94A24.54,24.54,0,0,1,27.72,51a24.49,24.49,0,0,1,14.47,4.42c4,2.9,6.13,6.79,6.13,10.94S46.06,74.53,42,77.46a.82.82,0,0,1-1.13-.19A.81.81,0,0,1,41,76.14c3.66-2.61,5.68-6.09,5.68-9.79,0-7.58-8.52-13.74-19-13.74s-19,6.16-19,13.74,8.51,13.74,19,13.74a25.74,25.74,0,0,0,6.11-.73.8.8,0,0,1,1,.59.81.81,0,0,1-.59,1A27.47,27.47,0,0,1,27.72,81.71Z"/><path class="cls-7" d="M46,85.45a.69.69,0,0,1-.28,0L33.74,80.9a.81.81,0,0,1-.47-1,.82.82,0,0,1,1-.48l9.83,3.71L40.8,77.23a.82.82,0,0,1,.31-1.11.81.81,0,0,1,1.1.31l4.45,7.81A.81.81,0,0,1,46,85.45Z"/><path class="cls-8" d="M22.91,67a2.07,2.07,0,1,1-2.07-2.07A2.07,2.07,0,0,1,22.91,67Z"/><path class="cls-8" d="M29.78,67a2.07,2.07,0,1,1-2.06-2.07A2.07,2.07,0,0,1,29.78,67Z"/><path class="cls-8" d="M36.66,67a2.07,2.07,0,1,1-2.07-2.07A2.07,2.07,0,0,1,36.66,67Z"/></svg>