<svg id="Layer_1" data-name="Layer 1" xmlns="http://www.w3.org/2000/svg" viewBox="0 0 150 150"><defs><style>.cls-1,.cls-3,.cls-9{fill:#fff;}.cls-1{stroke:#664d49;}.cls-1,.cls-11,.cls-2,.cls-3,.cls-4{stroke-linecap:round;}.cls-1,.cls-2,.cls-3,.cls-4,.cls-6{stroke-miterlimit:10;}.cls-1,.cls-2{stroke-width:2px;}.cls-2,.cls-8{fill:#5d04d9;}.cls-2,.cls-4{stroke:#5d04d9;}.cls-3{stroke:#fff;}.cls-3,.cls-4{stroke-width:1.11px;}.cls-11,.cls-4{fill:none;}.cls-5{fill:#ff342a;}.cls-10,.cls-6{fill:#333;}.cls-11,.cls-6{stroke:#333;}.cls-6{stroke-width:1.5px;}.cls-7{fill:#dfcdf7;}.cls-11{stroke-linejoin:round;stroke-width:2.5px;}</style></defs><rect class="cls-1" x="8.39" y="29.46" width="97.74" height="45.64" rx="4.85"/><path class="cls-2" d="M101.29,39.15H13.24A4.85,4.85,0,0,1,8.39,34.3h0a4.85,4.85,0,0,1,4.85-4.84h88.05a4.84,4.84,0,0,1,4.84,4.84h0A4.85,4.85,0,0,1,101.29,39.15Z"/><circle class="cls-3" cx="17.17" cy="34.3" r="1.83"/><path class="cls-3" d="M25.46,34.3a1.84,1.84,0,1,1-1.83-1.83A1.83,1.83,0,0,1,25.46,34.3Z"/><path class="cls-3" d="M31.92,34.3a1.83,1.83,0,1,1-1.83-1.83A1.83,1.83,0,0,1,31.92,34.3Z"/><circle class="cls-4" cx="24.28" cy="58.48" r="4.63" transform="translate(-34.24 34.29) rotate(-45)"/><line class="cls-4" x1="36.96" y1="53.85" x2="94.88" y2="53.85"/><line class="cls-4" x1="36.96" y1="58.48" x2="94.88" y2="58.48"/><line class="cls-4" x1="36.96" y1="63.11" x2="94.88" y2="63.11"/><path class="cls-5" d="M22.27,57.26a8.49,8.49,0,0,1,1.47.76A12.09,12.09,0,0,1,25,59l-1.31-.06a16.7,16.7,0,0,1,2.88-2.82,11.67,11.67,0,0,1,1.7-1.13,9.68,9.68,0,0,1,2-.86,8.91,8.91,0,0,1-1,1.89A14.23,14.23,0,0,1,28,57.59a16.39,16.39,0,0,1-3,2.65l-.87.6-.44-.66a14.16,14.16,0,0,1-.79-1.38A8.08,8.08,0,0,1,22.27,57.26Z"/><path class="cls-6" d="M135,101.69c-.44-.58-.83-1.08-1.19-1.53l0-.07c-3.17-4-3.23-4.12-6.92-18.86-2.21-8.86-7.25-13.07-11.59-15.06V60.52c0-3.27-3.1-5.94-6.92-5.94s-6.92,2.67-6.92,5.94v5.16c-4.57,1.77-10.37,5.89-12.78,15.55C85,96,84.89,96.05,81.72,100.09l-1.24,1.6c-2.94,3.84-2.9,6.68-2.36,8.39s2.19,4.1,6.91,5.57a69.66,69.66,0,0,0,11.3,2.07,5.24,5.24,0,0,0-.45,2.09c0,4.26,5.21,7.59,11.87,7.59s11.87-3.33,11.87-7.59a5.08,5.08,0,0,0-.46-2.09,69.79,69.79,0,0,0,11.31-2.07c4.71-1.47,6.35-3.84,6.9-5.57S138,105.53,135,101.69Z"/><path class="cls-7" d="M103,60.52c0-2.39,2.38-4.33,5.31-4.33s5.32,1.94,5.32,4.33v5a18.6,18.6,0,0,0-5.82-1.15h-.15a17.68,17.68,0,0,0-4.66.77Z"/><path class="cls-8" d="M118,119.81c0,3.3-4.6,6-10.26,6s-10.27-2.69-10.27-6A3.6,3.6,0,0,1,98,118l-.23-.16c5.15.56,9.63.82,10,.84h.09c.34,0,4.68-.27,9.73-.82l0,0A3.65,3.65,0,0,1,118,119.81Z"/><path class="cls-9" d="M135.85,109.59c-.79,2.48-3.62,3.83-5.86,4.53-6.45,2-20.62,2.9-22.22,3-1.65-.09-15.82-1-22.27-3-2.23-.7-5.07-2.05-5.86-4.52s.72-5.12,2.11-6.94c.42-.55.8-1,1.15-1.48l.08-.1c3.38-4.31,3.51-4.67,7.21-19.46C94,66.41,106.3,66,107.69,66h.07c.58,0,13.68.22,17.54,15.65,3.7,14.79,3.83,15.16,7.21,19.46l1.23,1.58C135.13,104.48,136.62,107.16,135.85,109.59Z"/><path class="cls-10" d="M100.42,75.46a.63.63,0,0,0-.92-.23c-1.91,1.31-5.85,4.68-6.16,10.28-.38,6.64-1.61,10.85-2.75,12.84a.64.64,0,0,0,.14.79l.25.21a.64.64,0,0,0,1-.15c1.53-2.64,2.65-7.66,3-13.6.27-4.81,3.78-7.84,5.45-9a.64.64,0,0,0,.19-.82Z"/><line class="cls-11" x1="60.81" y1="88.26" x2="70.98" y2="93.32"/><line class="cls-11" x1="60.38" y1="104.52" x2="70.73" y2="106.75"/><line class="cls-11" x1="63.23" y1="122.49" x2="71.46" y2="117.2"/><line class="cls-11" x1="121.43" y1="54.93" x2="126.23" y2="45.58"/><line class="cls-11" x1="132.35" y1="62.52" x2="140.87" y2="56.97"/><line class="cls-11" x1="133.57" y1="76.98" x2="145.25" y2="78.14"/></svg>