<?xml version="1.0" encoding="utf-8"?>
<!-- Generator: Adobe Illustrator 25.2.1, SVG Export Plug-In . SVG Version: 6.00 Build 0)  -->
<svg version="1.1" id="Layer_1" xmlns="http://www.w3.org/2000/svg" xmlns:xlink="http://www.w3.org/1999/xlink" x="0px" y="0px"
	 viewBox="0 0 768 500" style="enable-background:new 0 0 768 500;" xml:space="preserve">
<style type="text/css">
	.st0{fill:#B39EF5;}
	.st1{fill:#EAEEF1;}
	.st2{fill:#4722E9;}
	.st3{fill:none;stroke:#55BC9F;stroke-width:1.5;stroke-miterlimit:10;}
	.st4{fill:none;stroke:#55BC9F;stroke-width:2;stroke-miterlimit:10;}
	.st5{fill:none;stroke:#FFFFFF;stroke-width:2;stroke-miterlimit:10;}
	.st6{fill:none;stroke:#B39EF5;stroke-width:3;stroke-miterlimit:10;}
	.st7{fill:none;stroke:#FFFFFF;stroke-width:3;stroke-linecap:round;stroke-linejoin:round;}
</style>
<rect x="213.5" y="97.5" transform="matrix(8.367784e-02 -0.9965 0.9965 8.367784e-02 96.6904 631.1251)" class="st0" width="356" height="331"/>
<rect x="211.5" y="99.5" transform="matrix(8.367784e-02 -0.9965 0.9965 8.367784e-02 92.8688 630.9604)" class="st1" width="356" height="331"/>
<rect x="218" y="93" class="st2" width="331" height="350"/>
<circle class="st3" cx="273" cy="225" r="19"/>
<path class="st1" d="M315,218h118c3.3,0,6,2.7,6,6l0,0c0,3.3-2.7,6-6,6H315c-3.3,0-6-2.7-6-6l0,0C309,220.7,311.7,218,315,218z"/>
<circle class="st3" cx="273" cy="165" r="19"/>
<path class="st1" d="M315,158h118c3.3,0,6,2.7,6,6l0,0c0,3.3-2.7,6-6,6H315c-3.3,0-6-2.7-6-6l0,0C309,160.7,311.7,158,315,158z"/>
<line class="st4" x1="563.3" y1="377.9" x2="391.3" y2="376.9"/>
<line class="st5" x1="436.5" y1="377.1" x2="391.4" y2="376.9"/>
<line class="st6" x1="415.7" y1="323.6" x2="521.5" y2="96.3"/>
<polygon class="st0" points="537.4,132.1 555,94.4 539.1,60.9 502.4,69.8 458.6,163.4 465.4,173 460.6,183.5 453.8,173.8 431.7,221 
	447.7,254.5 484.4,245.6 532.5,142.6 519.4,143.6 524.5,133.2 "/>
<path class="st0" d="M389.5,375.5l4.5-46.9l22.9-8.3l8.3,22.9l-33.1,33.5c-0.6,0.6-1.6,0.6-2.1,0C389.6,376.4,389.5,376,389.5,375.5
	z"/>
<line class="st7" x1="514.8" y1="110.6" x2="448.4" y2="252.9"/>
</svg>
