<?xml version="1.0" encoding="utf-8"?>
<!-- Generator: Adobe Illustrator 25.2.1, SVG Export Plug-In . SVG Version: 6.00 Build 0)  -->
<svg version="1.1" id="Layer_1" xmlns="http://www.w3.org/2000/svg" xmlns:xlink="http://www.w3.org/1999/xlink" x="0px" y="0px"
	 viewBox="0 0 1400 768" style="enable-background:new 0 0 1400 768;" xml:space="preserve">
<style type="text/css">
	.st0{opacity:0.71;fill:none;stroke:#B39EF5;stroke-width:1.5;stroke-miterlimit:10;enable-background:new    ;}
	.st1{fill:#DF5751;}
	.st2{fill:#FFFFFF;}
	.st3{fill:#55BC9F;}
	.st4{fill:#FFFFFF;stroke:#333132;stroke-linecap:round;stroke-linejoin:round;}
	.st5{fill:#5005F2;}
	.st6{fill:none;stroke:#333132;stroke-linecap:round;stroke-linejoin:round;}
	.st7{fill:#333132;}
	.st8{fill:#F9F9F9;}
	.st9{fill:#D1D3D4;}
	.st10{fill:#4722E9;}
	.st11{fill:#B39EF5;}
	.st12{fill:none;stroke:#FFFFFF;stroke-width:0.25;stroke-linecap:round;stroke-linejoin:round;}
</style>
<path class="st0" d="M1401.6,724.4v-19h-33.3v19h-4.8v33.3h-16.7v-23.8h-16.7v2.4h-7.1v-35.7h-7.1l-2.8-11.9h-3.1v-11.9h-2.8v11.9
	h-2.8l-3,11.9h-7.1v35.7h-16.7v-9.5h-21.4v-11.9h-16.7v11.4l-9.5,8v-11.6H1197v10.4h-28.6v-10.4h-19v18.2h-13.7v-49.3H1125v-5.2
	h-23.8v5.2h-10.7v42.4h-8.4l-1.7-38.1h2.3V684h-2.4l2.4-28.5h-2.4l2.4-28.5h-2.4l2.4-28.6h-2.4l2.4-28.5h-2.4l2.4-28.5h-2.4
	l2.4-28.6h-2.4l2.4-28.5h-9.5v-9.5h-4.8v-16.7h4.8V446h-7.1v-9.5h2.4v-4.8h-4.8v-33.3h-4.7v33.3h-4.8v4.8h2.4v9.5h-7.1v11.9h4.8
	v16.6h-4.8v9.5h-9.5l2.4,28.6h-2.4l2.4,28.6h-2.4l2.4,28.5h-2.4l2.4,28.5h-2.4l2.4,28.6h-2.4l2.4,28.5h-2.4l2.4,28.5h-4.8v11.9h4.7
	l-1.7,38.1h-24.4v-4.8h4.8v-4.8h-31v4.8h4.8v4.8h-7.2V722H971v-30.9h-21.5v-14.3h-2.4v14.3h-14.3V684h-16.7v-7.1h-2.4v7.1h-7.1v-7.1
	h-2.4v7.1h-9.5v40.5h-7.1v-26.2h-4.8v-7.1h-23.8v-4.8h-21.4v4.8h-4.8v7.1h-7.1v45.4H802v-4.8h-11.2v-88.3h-8v-3.2h-8v3.2h-14.5
	v-20.9h-1.6v20.9h-6.4v-4.8h-16.1v4.8h-6.4v88.3h-4.8v-16.1h-16.9v-45h-24.9v-191H676v-14.4h-77.1v14.5h-7.2v191.1h-24.9v3.2h-16.9
	v4.8h-4.8v3.2h-6.4v8h3.2v46.6h-17.3v-97.9H519v-4.8h-41.7v4.8h-5.6v97.9h-22.9l-9.6-1.6l-6.4-48.2V575l-12.8-9.6l-6.4-89.9h-1.6
	l-6.4,89.9l-11.2,11.2v114l-4.6,53h-0.2V631.2h-22.5v-5.6H354V608h-3.2v-22.5h-3.2v45.8h-6.4v-45.8H338V608h-3.2v17.7h-12.9v5.6
	h-25.7V734h-14.5v9.6h-10.6v-96.3h-1.6v-23.1c0-0.5-0.4-0.9-0.9-1h-15.8c-0.5,0-1,0.4-1,1v23.1h-1.6v96.3h-8.6v-22.5h-8v-97.9h-86.7
	v-8h-3.2v-1.6h-22.5v-6.4h-1.6v6.4h-11.2v1.6h-8v122h-6.4v-53H63.4v46.6h-16v-48.2H7.2v61H-4V772h1408v-47.6H1401.6z"/>
<path class="st1" d="M1005,622.3V656c0,0.7,0.6,1.3,1.3,1.3h41.3c0.4,0,0.8,0.2,1.1,0.6l6.3,9.5c0.4,0.6,1.2,0.8,1.8,0.4
	c0.4-0.2,0.6-0.7,0.6-1.1v-44.4c0-0.7-0.6-1.3-1.3-1.3c0,0,0,0,0,0h-49.7C1005.6,621,1005,621.6,1005,622.3z"/>
<path class="st2" d="M524.8,549.2v57.4c0,1.2,1,2.2,2.2,2.2l0,0h70.2c0.7,0,1.4,0.4,1.8,1l10.8,16.2c0.7,1,2.1,1.2,3.1,0.5
	c0.6-0.4,0.9-1.1,0.9-1.8v-75.6c0-1.2-1-2.2-2.2-2.2c0,0,0,0,0,0H527C525.8,547,524.8,548,524.8,549.2
	C524.8,549.2,524.8,549.2,524.8,549.2z"/>
<path class="st3" d="M570.5,590.1c-0.6,0.6-1.6,0.6-2.2,0l-10-10c-7.4-7.4,2.5-17.9,10.1-12c0.6,0.5,1.4,0.5,2,0
	c7.4-5.6,17.2,4.8,10.1,12L570.5,590.1z"/>
<path class="st1" d="M49.8,553.4V591c0,0.8,0.6,1.4,1.4,1.4l0,0h45.9c0.5,0,0.9,0.2,1.2,0.6l7,10.6c0.4,0.7,1.3,0.8,2,0.4
	c0.4-0.3,0.6-0.7,0.6-1.2v-49.4c0-0.8-0.6-1.4-1.4-1.4H51.2C50.4,552,49.8,552.6,49.8,553.4L49.8,553.4z"/>
<path class="st1" d="M79.7,580.2c-0.4,0.4-1,0.4-1.4,0c0,0,0,0,0,0l-6.5-6.5c-4.8-4.8,1.7-11.7,6.6-7.8c0.4,0.3,0.9,0.3,1.3,0
	c4.8-3.7,11.3,3.2,6.6,7.8L79.7,580.2z"/>
<path class="st2" d="M197,439.2v84.7c0,1.8,1.5,3.3,3.2,3.3h103.6c1.1,0,2.1,0.5,2.7,1.5l15.9,23.9c1,1.5,3,2,4.5,1
	c1-0.6,1.5-1.7,1.5-2.8V439.2c0-1.8-1.5-3.2-3.3-3.2H200.2C198.5,436,197,437.5,197,439.2z"/>
<path class="st4" d="M265.7,458.7c-1.5,5.8,2.1,11.5,5.9,14.4c1.5,1.1,3.1,2,4.7,3c3.6,2.5,6.2,6,7.6,10.1c1.5,4.6,0.4,8.7,1,13.5
	c0.3,2.1,1.6,5.1,2.2,7.1c0.8,2.8,2.5,5.3,3.1,8.2c1.9,9.4-3.3,20.2-10.4,26.3c-8.7,7.2-20.6,9.3-31.2,5.5
	c-9.8-3.7-16.2-14.3-16.5-24.5c-0.1-4.1,0.8-8.1,2.5-11.8c1.8-3.6,3.3-7.4,4.5-11.3c2-6.1,5.3-8,9.2-13.2L265.7,458.7z"/>
<path class="st5" d="M238.4,532.3c-2.3-0.3-4.6-1-6.6-2.2c-2.8-1.6-5-4-6.4-6.9c-1.3-2.5-1.5-5.3-3-7.7c-2.5-3.9-7.5-3.3-9,1.1
	c-2.1,6,2,10.1,6.4,13.3c5.4,4.1,12,6.1,18.7,5.7L238.4,532.3z"/>
<path class="st5" d="M270.9,472.7c-2.2-3.1-3.6-6.7-4.2-10.4c-0.4-3.5-0.3-7.1,0.2-10.6c0.2-1.6,0.4-3.1,0.6-4.7
	c-7.2-0.4-13.7,3.8-18.1,8.4c-6.3,6.6-9.9,12.7-10.8,21c-0.4,3.3,0.1,5,1.4,8.1c1,2.6,1.3,5.3,2.2,8c0.1,0.1,0.1,0.3,0.2,0.3
	c0.2,0,0.3,0,0.4-0.1c2.1-1.5,4.1-3.1,5.9-4.9c1.9-1.9,3.1-4.1,4.8-6.2c1.1-1.4,2.4-2.7,3.8-3.9c1.8-1.5,3.9-2.7,6.1-3.6
	c2.1-0.9,4.8-1.8,7.1-1.5C270.6,472.7,270.8,472.7,270.9,472.7z"/>
<path class="st6" d="M262.9,452.2c-2.7,6.4-2,12.4,1.3,19.6"/>
<path class="st6" d="M258.3,444c-4,11.6-2.9,18.5,0.8,28.1"/>
<path class="st6" d="M250,449.8c-0.9,8.1,2.1,18.6,4.8,24.8"/>
<path class="st6" d="M251.4,476.9c-2.7-4-7.5-12.9-8-18.7"/>
<path class="st6" d="M240,466.5c0.9,4.5,3.3,8.8,9.1,12.9"/>
<path class="st6" d="M238.4,477.2c2.3,3.2,4.9,4.6,8.9,5.6"/>
<path class="st6" d="M240,485.3c1.9,1.6,3.8,1.6,6.1,1"/>
<path class="st7" d="M287.6,492.9c0.9,0.3,1.7,0.6,2.6,0.9c0.7,0.3,1.4,0.6,2,1.1c0.6,0.5,1,1.2,1.1,2c-2.9-0.3-5.8-0.4-8.7-0.2v-1
	v-3.5C285.4,491.6,287,492.6,287.6,492.9z"/>
<path class="st6" d="M253.6,548.2c0.7,6.2,0.5,12.8-3.1,17.9c-0.8-3.5,0.5-7.2,3.2-9.6c1.1,3.4,2.4,7,1.3,10.5
	c-1.4-3.4-1.7-7-1-10.6c1.3,0.1,2.4,1.6,3.2,2.5c1.1,1.5,1.8,3.2,2.3,5c0.1,0.4-0.4,0.2-0.6,0c-1.5-0.9-2.9-2.2-3.8-3.8
	c-0.5-1.2-0.9-2.5-1-3.8"/>
<path class="st6" d="M265.7,548.2c0,0.7,0,4,0.5,4.5c0.4,0.4,0.8,0.6,1.3,0.8c3,1.3,1.4,0.5,3.9,2.7l2.8,2.6c1.6,1.4,3,3.1,3.9,5
	c0.2,0.4,0.3,0.8,0.2,1.2c0,0.1,0,0.2,0,0.3c0,0.1,0,0.1-0.1,0.1c-0.2-0.1-0.4-0.1-0.5-0.2c-1.7-0.9-2.6-2.7-3.5-4.2
	c-0.7-1.1-1.2-2.4-1.5-3.7c1.2-0.2,2.4-0.1,3.6,0.4c2,0.9,3.5,2.7,4.2,4.8c-2.9-0.5-4.1-4.2-6.9-5.1c-0.7-0.2-0.9-0.1-0.9-0.1
	c-0.6,1.2-1,2.5-0.9,3.9c0,1.8,0.4,4,1.1,4.7c0.5-0.3,0.6-2.9,0.6-4.1c0-2.6-0.4-2.6-0.7-4.4"/>
<circle class="st5" cx="273" cy="487.5" r="3.3"/>
<circle class="st8" cx="273.8" cy="486.7" r="0.8"/>
<path class="st7" d="M242.4,493.2c-1.5,1.8-2.6,3.9-3.3,6.2c-1.2,3.9-2.7,7.6-4.5,11.3c-1.8,3.7-2.7,7.7-2.6,11.7
	c0.3,8,3.9,15.5,10,20.7C251.3,527.7,251.4,508.6,242.4,493.2L242.4,493.2z"/>
<path class="st9" d="M279.8,541.3c7.1-6,12.3-16.9,10.4-26.3c-0.6-2.9-2.3-5.4-3.1-8.2c-0.5-1.9-1.8-4.7-2.1-6.8
	c-18.8,4.4-32.7,19.7-32.7,37.8c0,3.5,0.5,7,1.6,10.4C263.1,549.9,272.5,547.3,279.8,541.3z"/>
<rect x="208" y="527" class="st10" width="96" height="53"/>
<path class="st2" d="M808,487.2v84.7c0,1.8,1.5,3.3,3.2,3.3h103.6c1.1,0,2.1,0.5,2.7,1.5l15.9,23.9c1,1.5,3,2,4.5,1
	c1-0.6,1.5-1.7,1.5-2.8V487.2c0-1.8-1.5-3.2-3.3-3.2H811.2C809.5,484,808,485.5,808,487.2z"/>
<rect x="827" y="504" class="st11" width="93" height="55"/>
<rect x="827" y="504" class="st10" width="93" height="8"/>
<circle class="st2" cx="831.5" cy="508.5" r="1.5"/>
<circle class="st2" cx="837.5" cy="508.5" r="1.5"/>
<circle class="st2" cx="843.5" cy="508.5" r="1.5"/>
<path class="st2" d="M1202,525.8v71.8c0,1.5,1.2,2.8,2.8,2.8l0,0h87.8c0.9,0,1.8,0.5,2.3,1.2l13.5,20.2c0.8,1.3,2.6,1.6,3.8,0.8
	c0.8-0.5,1.2-1.4,1.2-2.3v-94.5c0-1.5-1.2-2.8-2.8-2.8l0,0h-105.8C1203.2,523,1202,524.2,1202,525.8
	C1202,525.7,1202,525.8,1202,525.8z"/>
<rect x="1244" y="534" class="st11" width="28" height="55"/>
<rect x="1244" y="534" class="st10" width="28" height="6"/>
<line class="st12" x1="1266.5" y1="536" x2="1270" y2="536"/>
<line class="st12" x1="1266.5" y1="537" x2="1270" y2="537"/>
<line class="st12" x1="1266.5" y1="538" x2="1270" y2="538"/>
</svg>
