<svg id="Layer_1" data-name="Layer 1" xmlns="http://www.w3.org/2000/svg" viewBox="0 0 150 150"><defs><style>.cls-1{fill:#5d04d9;}.cls-2,.cls-4{fill:#664d49;}.cls-3{fill:#fff;}.cls-4{stroke:#664d49;stroke-miterlimit:10;stroke-width:0.5px;}.cls-5{fill:#06c755;}.cls-6{fill:#dfcdf7;}</style></defs><path class="cls-1" d="M7,119.54V136.2a5.42,5.42,0,0,0,5.41,5.41H67.81a5.42,5.42,0,0,0,5.41-5.41V119.54Z"/><path class="cls-2" d="M67.81,142.83H12.43A6.63,6.63,0,0,1,5.8,136.2V119.54A1.21,1.21,0,0,1,7,118.33h66.2a1.21,1.21,0,0,1,1.22,1.21V136.2A6.63,6.63,0,0,1,67.81,142.83ZM8.23,120.76V136.2a4.2,4.2,0,0,0,4.2,4.19H67.81A4.2,4.2,0,0,0,72,136.2V120.76Z"/><path class="cls-3" d="M46.47,130.89a6.35,6.35,0,1,1-6.35-6.35A6.35,6.35,0,0,1,46.47,130.89Z"/><path class="cls-2" d="M40.12,138.46a7.57,7.57,0,1,1,7.57-7.57A7.58,7.58,0,0,1,40.12,138.46Zm0-12.7a5.13,5.13,0,1,0,5.13,5.13A5.13,5.13,0,0,0,40.12,125.76Z"/><path class="cls-3" d="M73.22,18.69V119.54H7V18.69a5.42,5.42,0,0,1,5.41-5.41H67.81A5.42,5.42,0,0,1,73.22,18.69Z"/><path class="cls-2" d="M73.22,120.76H7a1.21,1.21,0,0,1-1.22-1.22V18.69a6.63,6.63,0,0,1,6.63-6.63H67.81a6.63,6.63,0,0,1,6.63,6.63V119.54A1.21,1.21,0,0,1,73.22,120.76Zm-65-2.43H72V18.69a4.2,4.2,0,0,0-4.19-4.19H12.43a4.2,4.2,0,0,0-4.2,4.19Z"/><path class="cls-3" d="M46.47,130.89a6.35,6.35,0,1,1-6.35-6.35A6.35,6.35,0,0,1,46.47,130.89Z"/><path class="cls-2" d="M40.12,138.46a7.57,7.57,0,1,1,7.57-7.57A7.58,7.58,0,0,1,40.12,138.46Zm0-12.7a5.13,5.13,0,1,0,5.13,5.13A5.13,5.13,0,0,0,40.12,125.76Z"/><path class="cls-3" d="M61,54.94c3.33-2.37,5.4-5.69,5.4-9.36,0-7.2-7.94-13-17.74-13S31,38.38,31,45.58s7.94,13,17.73,13a23.45,23.45,0,0,0,5.65-.68Z"/><path class="cls-4" d="M48.69,59.34a21.92,21.92,0,0,1-13-4c-3.54-2.6-5.49-6.08-5.49-9.8s1.95-7.2,5.49-9.81a22,22,0,0,1,13-4,22,22,0,0,1,13,4c3.54,2.61,5.49,6.09,5.49,9.81s-2,7.34-5.7,10a.71.71,0,0,1-1-.17.73.73,0,0,1,.17-1C63.89,52,65.7,48.9,65.7,45.58c0-6.79-7.63-12.32-17-12.32s-17,5.53-17,12.32,7.63,12.31,17,12.31a23.09,23.09,0,0,0,5.48-.65.72.72,0,0,1,.88.53.71.71,0,0,1-.53.87A24,24,0,0,1,48.69,59.34Z"/><path class="cls-4" d="M65,62.7a.56.56,0,0,1-.25-.05l-10.69-4a.72.72,0,0,1-.42-.94.73.73,0,0,1,.93-.42l8.81,3.33-3-5.26a.73.73,0,1,1,1.26-.72l4,7a.73.73,0,0,1-.07.83A.77.77,0,0,1,65,62.7Z"/><path class="cls-1" d="M44.38,46.17a1.85,1.85,0,1,1-1.85-1.85A1.85,1.85,0,0,1,44.38,46.17Z"/><path class="cls-1" d="M50.54,46.17a1.85,1.85,0,1,1-1.85-1.85A1.85,1.85,0,0,1,50.54,46.17Z"/><path class="cls-1" d="M56.71,46.17a1.86,1.86,0,1,1-1.86-1.85A1.85,1.85,0,0,1,56.71,46.17Z"/><path class="cls-3" d="M25.3,91.47a23.59,23.59,0,0,0,5.66.68c9.79,0,17.73-5.84,17.73-13s-7.94-13-17.73-13-17.74,5.84-17.74,13c0,3.68,2.07,7,5.39,9.36Z"/><path class="cls-4" d="M31,92.87a24.42,24.42,0,0,1-5.83-.69.73.73,0,1,1,.35-1.41,23.09,23.09,0,0,0,5.48.65c9.38,0,17-5.52,17-12.31S40.34,66.8,31,66.8s-17,5.52-17,12.31c0,3.32,1.81,6.44,5.09,8.77a.72.72,0,0,1,.17,1,.72.72,0,0,1-1,.18c-3.67-2.62-5.7-6.16-5.7-10s1.95-7.2,5.49-9.81a22,22,0,0,1,13-4,22,22,0,0,1,13,4c3.54,2.61,5.49,6.09,5.49,9.81s-2,7.2-5.49,9.8A22,22,0,0,1,31,92.87Z"/><path class="cls-4" d="M14.61,96.23a.75.75,0,0,1-.55-.25.73.73,0,0,1-.08-.83l4-7a.72.72,0,0,1,1-.27.73.73,0,0,1,.27,1l-3,5.26,8.81-3.33a.73.73,0,0,1,.51,1.36l-10.69,4A.75.75,0,0,1,14.61,96.23Z"/><path class="cls-1" d="M35.27,79.7a1.85,1.85,0,1,0,1.85-1.85A1.85,1.85,0,0,0,35.27,79.7Z"/><path class="cls-1" d="M29.1,79.7A1.86,1.86,0,1,0,31,77.85,1.86,1.86,0,0,0,29.1,79.7Z"/><path class="cls-1" d="M22.94,79.7a1.85,1.85,0,1,0,1.85-1.85A1.85,1.85,0,0,0,22.94,79.7Z"/><g id="g7962"><path id="path7964" class="cls-5" d="M146,75.67c0-9-9.07-16.4-20.21-16.4s-20.21,7.35-20.21,16.4c0,8.1,7.19,14.89,16.9,16.18.66.14,1.56.43,1.78,1a4.19,4.19,0,0,1,.07,1.83L124,96.4c-.09.51-.41,2,1.75,1.09s11.64-6.85,15.88-11.73h0c2.92-3.21,4.33-6.47,4.33-10.09"/></g><g id="g7966"><path id="path7968" class="cls-3" d="M121.67,71.3h-1.41a.39.39,0,0,0-.4.39V80.5a.4.4,0,0,0,.4.39h1.41a.4.4,0,0,0,.4-.39V71.69a.39.39,0,0,0-.4-.39"/></g><g id="g7970"><path id="path7972" class="cls-3" d="M131.43,71.3H130a.38.38,0,0,0-.39.39v5.23l-4-5.45,0,0h0l0,0h0l0,0h-1.66a.39.39,0,0,0-.4.39V80.5a.4.4,0,0,0,.4.39h1.42a.4.4,0,0,0,.39-.39V75.27l4,5.45a.47.47,0,0,0,.1.1h0l0,0h.09l.1,0h1.42a.39.39,0,0,0,.39-.39V71.69a.38.38,0,0,0-.39-.39"/></g><g id="g7974"><path id="path7976" class="cls-3" d="M118.26,78.68h-3.85v-7a.39.39,0,0,0-.4-.39h-1.42a.39.39,0,0,0-.39.39v8.8h0a.39.39,0,0,0,.11.27h0a.39.39,0,0,0,.27.11h5.67a.4.4,0,0,0,.39-.4V79.08a.4.4,0,0,0-.39-.4"/></g><g id="g7978"><path id="path7980" class="cls-3" d="M139.26,73.5a.39.39,0,0,0,.39-.39V71.69a.39.39,0,0,0-.39-.39h-5.67a.39.39,0,0,0-.27.11h0a.39.39,0,0,0-.11.27h0v8.8h0a.39.39,0,0,0,.11.27h0a.39.39,0,0,0,.27.11h5.67a.4.4,0,0,0,.39-.4V79.08a.4.4,0,0,0-.39-.4h-3.85V77.2h3.85a.4.4,0,0,0,.39-.4V75.38a.4.4,0,0,0-.39-.39h-3.85V73.5Z"/></g><polygon class="cls-6" points="86.83 76.77 86.84 80.96 98.6 72.64 86.8 64.3 86.81 68.36 86.83 76.77"/><path class="cls-2" d="M86.84,81.45a.46.46,0,0,1-.23,0,.5.5,0,0,1-.26-.44V76.77a.51.51,0,0,1,.49-.5h0a.51.51,0,0,1,.5.5V80l10.41-7.35L87.3,65.25v3.1a.5.5,0,0,1-.5.5h0a.49.49,0,0,1-.49-.49V64.3a.48.48,0,0,1,.27-.44.47.47,0,0,1,.51,0l11.8,8.35a.5.5,0,0,1,0,.81L87.13,81.36A.52.52,0,0,1,86.84,81.45Z"/><polygon class="cls-6" points="86.81 68.36 61.64 68.36 61.64 76.77 86.83 76.77 86.81 68.36"/><path class="cls-2" d="M86.83,77.27H61.64a.5.5,0,0,1-.49-.5V68.36a.49.49,0,0,1,.49-.5H86.81a.5.5,0,1,1,0,1H62.14v7.42H86.83a.5.5,0,0,1,0,1Z"/><polygon class="cls-1" points="73.43 84.68 73.44 80.62 61.64 88.97 73.4 97.28 73.41 93.09 73.43 84.68"/><path class="cls-2" d="M73.4,97.78a.47.47,0,0,1-.28-.09L61.36,89.37a.46.46,0,0,1-.21-.4.49.49,0,0,1,.21-.41l11.79-8.35a.51.51,0,0,1,.52,0,.49.49,0,0,1,.26.44v4.06a.51.51,0,0,1-.5.49h0a.5.5,0,0,1-.5-.49v-3.1L62.5,89l10.41,7.36V93.09a.49.49,0,0,1,.49-.49h0a.49.49,0,0,1,.5.49v4.19a.49.49,0,0,1-.27.44A.46.46,0,0,1,73.4,97.78Z"/><polygon class="cls-1" points="73.41 93.09 98.6 93.09 98.6 84.68 73.43 84.68 73.41 93.09"/><path class="cls-2" d="M98.6,93.59H73.41a.5.5,0,0,1,0-1h24.7V85.17H73.43a.5.5,0,1,1,0-1H98.6a.5.5,0,0,1,.5.5v8.41A.5.5,0,0,1,98.6,93.59Z"/></svg>