<svg id="Layer_1" data-name="Layer 1" xmlns="http://www.w3.org/2000/svg" viewBox="0 0 150 150"><defs><style>.cls-1{fill:#fff;}.cls-2,.cls-4{fill:#664d49;}.cls-2{stroke:#664d49;stroke-miterlimit:10;}.cls-3{fill:#5d04d9;}.cls-5{fill:#dfcdf7;}</style></defs><path class="cls-1" d="M117.92,88.3a251.75,251.75,0,0,1-5.39-34.15C101.28,52.3,85.09,50.4,71,51.67a69.86,69.86,0,0,0-9.21,1.41l-.12,0c-11,2.52-17.33,7.6-19,15.16-.54,2.44,1.9,3.55,4,4.06a51.21,51.21,0,0,0,9.07-1.84c5.32-1.52,8.68-3.33,9.45-5.08a.67.67,0,0,1,.49-.39l8.46-1.51a.61.61,0,0,1,.4,0,.72.72,0,0,1,.46,0c.08,0,8.1,2.26,16.15,5.1a105,105,0,0,1,11.37,4.63c3.78,1.88,5.68,3.42,6,4.86.55,2.7,0,4.76-1.62,6.13a6.59,6.59,0,0,1-1.88,1.09.66.66,0,0,1,0,.5,11.45,11.45,0,0,1-6.47,6.37,21.12,21.12,0,0,1-8,1.38A47.32,47.32,0,0,1,80,92.19a74.84,74.84,0,0,1-10.49-3.31A.67.67,0,0,1,70,87.64c.18.07,18,7.46,28.1,3.3a10.12,10.12,0,0,0,5.54-5.19,17.41,17.41,0,0,1-3.9.38,52.79,52.79,0,0,1-12.25-1.82,132.13,132.13,0,0,1-13.9-4.37.68.68,0,0,1,.49-1.26A125.22,125.22,0,0,0,87.82,83c9.36,2.32,15.68,2.39,18.27.21,1.24-1,1.63-2.63,1.17-4.84-.17-.87-2.13-3.42-16.46-8.49-8-2.82-16-5-16.07-5.07l-.1,0a.48.48,0,0,1-.17,0l-8.12,1.46c-1.17,2.08-4.65,4-10.36,5.56a50.44,50.44,0,0,1-9.23,1.82l-.26,0a8.57,8.57,0,0,1-3.86-1.79A3.87,3.87,0,0,1,41.39,68c1.54-7,6.72-12,15.47-14.91l-19.59-.19A241.28,241.28,0,0,1,32,86c-.53,2.19-1,4.06-1.47,5.62a162.86,162.86,0,0,0,26.13,11.65c8.2,2.72,15.28,4,21.06,3.89C84.15,107,88.94,105,92,101.32c.31-.39.61-.79.89-1.21a.67.67,0,1,1,1.12.74l-.05.07a75.92,75.92,0,0,0,8.79-1.67c5-1.26,11.76-3.58,16-7.52C118.49,90.68,118.21,89.53,117.92,88.3Zm-17.57,4.85a11.43,11.43,0,0,1-6.47,6.36,20.87,20.87,0,0,1-8,1.39,46.82,46.82,0,0,1-10.61-1.39,74.09,74.09,0,0,1-10.49-3.3.68.68,0,0,1-.36-.88.66.66,0,0,1,.88-.36c.18.07,18,7.46,28.1,3.3a10.14,10.14,0,0,0,5.74-5.64.67.67,0,0,1,.88-.36A.67.67,0,0,1,100.35,93.15Z"/><path class="cls-2" d="M119.53,92.3a.64.64,0,0,1-.16.29l-.34.34-.53.51c-3.38,3.1-8.46,5.58-15.13,7.37a68.39,68.39,0,0,1-9.62,1.85l-.27,0h0a.64.64,0,0,1-.63-.61.68.68,0,0,1,.16-.52.59.59,0,0,1,.41-.21s.54,0,1.44-.18a68,68,0,0,0,8.27-1.67c4.7-1.26,11.06-3.58,15.06-7.52l.34-.35a.9.9,0,0,1,.2-.14.62.62,0,0,1,.69.14h0A.7.7,0,0,1,119.53,92.3Z"/><path class="cls-3" d="M18.88,44.53l-8.82,52.8H28s6-15.08,8.82-46.74Z"/><path class="cls-4" d="M37,50,19.09,43.89a.69.69,0,0,0-.56.06.74.74,0,0,0-.32.47L9.4,97.22a.67.67,0,0,0,.15.54.64.64,0,0,0,.51.24H28a.68.68,0,0,0,.63-.42c0-.1.64-1.62,1.54-4.65.12-.41.25-.85.38-1.32C31,90.05,31.48,88.18,32,86a241.28,241.28,0,0,0,5.26-33.12c0-.44.09-.89.13-1.35,0-.29.05-.58.08-.88A.68.68,0,0,0,37,50ZM29,92.09c-.69,2.36-1.22,3.88-1.47,4.57H10.86l8.55-51.24,16.68,5.63a244.34,244.34,0,0,1-5.38,34.58Q29.9,89,29.22,91.34C29.14,91.6,29.07,91.85,29,92.09Z"/><path class="cls-5" d="M131,46.26l9,54H122S115.83,84,113,52.32Z"/><path class="cls-2" d="M140.6,100.1l-9-53.95a.68.68,0,0,0-.32-.47.69.69,0,0,0-.56-.06l-17.93,6.06a.66.66,0,0,0-.45.69l0,.4c0,.46.09.92.13,1.38a251.75,251.75,0,0,0,5.39,34.15c.29,1.23.57,2.38.84,3.43.13.51.26,1,.39,1.46,1.27,4.73,2.18,7.14,2.23,7.26a.67.67,0,0,0,.63.44h17.93a.67.67,0,0,0,.51-.24A.68.68,0,0,0,140.6,100.1Zm-18.12-.56c-.34-1-1.18-3.47-2.24-7.49-.06-.21-.12-.44-.17-.66-.28-1.06-.56-2.2-.85-3.44a253.21,253.21,0,0,1-5.47-35.17l16.68-5.63,8.71,52.39Z"/><path class="cls-2" d="M62.28,52.44a.67.67,0,0,1-.46.64l-.12,0h-.1l-4.74,0-19.59-.19H36.8l-.2,0a.68.68,0,0,1-.47-.64.69.69,0,0,1,.59-.67h.68l24.12.24h.1A.66.66,0,0,1,62.28,52.44Z"/><path class="cls-2" d="M94,100.85l-.05.07a13.88,13.88,0,0,1-1.13,1.49c-3.31,3.88-8.37,5.92-15.08,6.08h-.86c-5.77,0-12.71-1.33-20.66-4a163.44,163.44,0,0,1-26.07-11.6c-.26-.14-.46-.25-.6-.34l-.26-.14a.74.74,0,0,1-.3-.36.65.65,0,0,1,.06-.56.49.49,0,0,1,.16-.19.67.67,0,0,1,.72-.08l0,0,.56.33a162.86,162.86,0,0,0,26.13,11.65c8.2,2.72,15.28,4,21.06,3.89C84.15,107,88.94,105,92,101.32c.31-.39.61-.79.89-1.21a.67.67,0,1,1,1.12.74Z"/><path class="cls-2" d="M100.35,93.15a11.43,11.43,0,0,1-6.47,6.36,20.87,20.87,0,0,1-8,1.39,46.82,46.82,0,0,1-10.61-1.39,74.09,74.09,0,0,1-10.49-3.3.68.68,0,0,1-.36-.88.66.66,0,0,1,.88-.36c.18.07,18,7.46,28.1,3.3a10.14,10.14,0,0,0,5.74-5.64.67.67,0,0,1,.88-.36A.67.67,0,0,1,100.35,93.15Z"/><path class="cls-2" d="M105.08,85.82a11.45,11.45,0,0,1-6.47,6.37,21.12,21.12,0,0,1-8,1.38A47.32,47.32,0,0,1,80,92.19a74.84,74.84,0,0,1-10.49-3.31A.67.67,0,0,1,70,87.64c.18.07,18,7.46,28.1,3.3a10.12,10.12,0,0,0,5.54-5.19c.07-.14.13-.29.19-.44a.68.68,0,0,1,.88-.37.63.63,0,0,1,.37.38A.66.66,0,0,1,105.08,85.82Z"/><path class="cls-2" d="M107,84.23a6.59,6.59,0,0,1-1.88,1.09,9.37,9.37,0,0,1-1.44.43,17.41,17.41,0,0,1-3.9.38,52.79,52.79,0,0,1-12.25-1.82,132.13,132.13,0,0,1-13.9-4.37.68.68,0,0,1,.49-1.26A125.22,125.22,0,0,0,87.82,83c9.36,2.32,15.68,2.39,18.27.21,1.24-1,1.63-2.63,1.17-4.84-.17-.87-2.13-3.42-16.46-8.49-8-2.82-16-5-16.07-5.07l-.1,0a.67.67,0,0,1-.37-.79.64.64,0,0,1,.37-.43.72.72,0,0,1,.46,0c.08,0,8.1,2.26,16.15,5.1a105,105,0,0,1,11.37,4.63c3.78,1.88,5.68,3.42,6,4.86C109.13,80.8,108.59,82.86,107,84.23Z"/><path class="cls-2" d="M113.15,52.89h-.06l-.69-.11C101.09,50.92,85,49.06,70.91,50.33a72.67,72.67,0,0,0-9.39,1.43c-1.65.38-3.2.81-4.66,1.3C48.11,56,42.93,61,41.39,68a3.87,3.87,0,0,0,1.24,3.88,8.57,8.57,0,0,0,3.86,1.79l.26,0A50.44,50.44,0,0,0,56,71.84c5.71-1.61,9.19-3.48,10.36-5.56l8.12-1.46a.48.48,0,0,0,.17,0,.67.67,0,0,0,0-1.22.61.61,0,0,0-.4,0L65.77,65a.67.67,0,0,0-.49.39c-.77,1.75-4.13,3.56-9.45,5.08a51.21,51.21,0,0,1-9.07,1.84c-2.15-.51-4.59-1.62-4-4.06,1.66-7.56,8-12.64,19-15.16l.12,0A69.86,69.86,0,0,1,71,51.67c14.06-1.27,30.25.63,41.5,2.48l.4.07a.67.67,0,0,0,.28,0,.65.65,0,0,0,.49-.54A.68.68,0,0,0,113.15,52.89Z"/></svg>