<?xml version="1.0" encoding="utf-8"?>
<!-- Generator: Adobe Illustrator 25.2.1, SVG Export Plug-In . SVG Version: 6.00 Build 0)  -->
<svg version="1.1" id="Layer_1" xmlns="http://www.w3.org/2000/svg" xmlns:xlink="http://www.w3.org/1999/xlink" x="0px" y="0px"
	 viewBox="0 0 768 500" style="enable-background:new 0 0 768 500;" xml:space="preserve">
<style type="text/css">
	.st0{fill:#55BC9F;}
	.st1{fill:#EAEEF1;}
	.st2{fill:#4722E9;}
	.st3{fill:#FFFFFF;}
	.st4{fill:#B39EF5;}
	.st5{fill:none;stroke:#FFFFFF;stroke-width:3;stroke-linecap:round;stroke-linejoin:round;}
	.st6{fill:none;stroke:#FFFFFF;stroke-width:1.5;stroke-linecap:round;stroke-linejoin:round;}
	.st7{fill:none;stroke:#4722E9;stroke-width:2;stroke-miterlimit:10;}
</style>
<path class="st0" d="M198.5,141h370c4.1,0,7.5,3.3,7.5,7.5V227l0,0H191l0,0v-78.5C191,144.3,194.3,141,198.5,141L198.5,141z"/>
<path class="st1" d="M198.5,144h370c4.1,0,7.5,3.3,7.5,7.5V230l0,0H191l0,0v-78.5C191,147.3,194.3,144,198.5,144L198.5,144z"/>
<path class="st2" d="M486,187.5v18c0,6.4-5.1,11.5-11.5,11.5l0,0h-182c-6.4,0-11.5-5.1-11.5-11.5l0,0v-18c0-6.4-5.1-11.5-11.5-11.5
	h-70.9c-4.2,0-7.6,3.4-7.6,7.6c0,0,0,0,0,0v253.7c0,4.2,3.4,7.6,7.6,7.6c0,0,0,0,0,0h369.7c4.2,0,7.6-3.4,7.6-7.6c0,0,0,0,0,0V183.6
	c0-4.2-3.4-7.6-7.6-7.6c0,0,0,0,0,0h-70.9C491.1,176,486,181.1,486,187.5z"/>
<path class="st3" d="M362,200h44c3.3,0,6,2.7,6,6v37c0,3.3-2.7,6-6,6h-44c-3.3,0-6-2.7-6-6v-37C356,202.7,358.7,200,362,200z"/>
<path class="st2" d="M307.3,104h154.5c2.4,0,4.3,1.9,4.3,4.3v17.5c0,2.4-1.9,4.3-4.3,4.3H307.3c-2.4,0-4.3-1.9-4.3-4.3v-17.5
	C303,105.9,304.9,104,307.3,104z"/>
<path class="st4" d="M512.6,61.3l22.7,10.6c7.7,3.6,11,12.7,7.4,20.4c0,0,0,0,0,0l-50.3,107.5l0,0L442,176.2l0,0l50.3-107.5
	C495.8,61,504.9,57.7,512.6,61.3z"/>
<rect x="342.3" y="182.5" transform="matrix(0.4237 -0.9058 0.9058 0.4237 77.9834 534.3716)" class="st4" width="233.4" height="46.7"/>
<path class="st4" d="M420.1,340.7l-39.5-18.5c-0.8-0.4-0.9-1.6-0.4-2.9l6.7-14.7l42.3,19.8l-6.7,14.7
	C422,340.4,420.9,341.1,420.1,340.7z"/>
<path class="st2" d="M524.9,101.2L524.9,101.2c1.3,0.6,1.8,2.1,1.2,3.3L491,179.7c-0.6,1.3-2.1,1.8-3.3,1.2l0,0
	c-1.3-0.6-1.8-2.1-1.2-3.3l35.1-75.2C522.1,101.2,523.6,100.6,524.9,101.2z"/>
<path class="st2" d="M521.6,99.7l6.5,3c1,0.5,1.5,1.7,1,2.7l-7.9,17c-0.5,1-1.7,1.5-2.7,1l-6.5-3c-1-0.5-1.5-1.7-1-2.7l7.9-17
	C519.4,99.7,520.6,99.2,521.6,99.7z"/>
<line class="st5" x1="450.9" y1="174.1" x2="488.7" y2="191.8"/>
<line class="st6" x1="448.3" y1="193.5" x2="401.4" y2="294.1"/>
<polygon class="st4" points="375.3,383.5 380.2,332.4 403.1,324.1 411.4,347 "/>
<circle class="st2" cx="392.5" cy="347.1" r="2.2"/>
<line class="st7" x1="388.9" y1="355" x2="374.5" y2="385.1"/>
<line class="st6" x1="466.9" y1="153.6" x2="460.5" y2="167.2"/>
<path class="st3" d="M435.3,380.4c-2.1-1-4.1-2.1-6-3.5c2.4-0.7,4.8-1.5,6.9-2.4c0.3-0.1,0.5-0.2,0.8-0.3v-3.2
	c-0.6,0.3-1.2,0.5-1.9,0.8c-2.5,1-5.3,1.9-8.2,2.7c-1.3-1.9-2.2-4.1-2.7-6.3c-1.1-4.9,1.5-9.2,4-11.9c2.3-2.2,5-3.8,8-4.9l0.9-0.2
	V348c-0.6,0.1-1.2,0.3-1.8,0.5c-3.5,1.2-6.7,3.2-9.3,5.7c-4.2,4.7-5.8,9.8-4.6,14.6c0.5,2.3,1.4,4.4,2.6,6.4
	c-11.5,2.9-37.7,5.7-47.2,6.3c-0.8,0.1-1.5,0.8-1.4,1.6c0.1,0.8,0.8,1.5,1.6,1.4l0,0c10.4-0.7,37.2-3.6,49-6.7
	c2.4,2.1,5.2,3.9,8.1,5.2c1,0.5,2,0.9,3,1.3v-3.2C436.5,380.9,435.9,380.6,435.3,380.4z"/>
<path class="st0" d="M480.5,386c4.2-1.2,8.1-3.1,11.7-5.6c4.4,2.2,9.1,3.7,14,4.5c14.6,2.6,32.1,0.6,48.4-5.5c8,4.1,19,6.6,32.7,7.6
	c0.8,0.1,1.5-0.6,1.6-1.4c0.1-0.8-0.6-1.5-1.4-1.6c-12-0.8-21.8-2.9-29.1-6.1c5.8-2.5,12.5-6.5,14-12.3c1-3.1,0.6-6.5-1-9.4
	c-1.8-3.1-5-5.3-9.3-6.5c-5.4-1.3-11.1-0.3-15.7,2.6c-3.4,2.3-5.3,6.2-5.2,10.3c0.2,5.3,3.8,10.7,9.6,14.6l0.3,0.2
	c-15.2,5.2-31.1,6.8-44.5,4.5c-4.1-0.7-8.1-1.9-11.9-3.6c3.7-2.9,6.6-6.8,8.2-11.2c1.4-4.1,0.9-7.8-1.4-10.9
	c-1.9-2.8-4.9-4.7-8.3-5.4c-7.7-1.5-13.5,2.8-15.2,7.7c-1.2,3.7-0.8,7.7,1.3,11c2.4,3.8,5.7,6.9,9.6,9.1c-3,1.9-6.2,3.3-9.6,4.4
	c-13.4,4-30.5,3.2-42.5-1.9v3.2C451,389.5,466.2,390,480.5,386z M544.2,362.6c-0.1-3.1,1.4-6,4-7.8c2.8-1.7,6-2.6,9.3-2.6
	c1.3,0,2.6,0.2,3.9,0.5c3.5,0.9,6.1,2.7,7.5,5c1.2,2.2,1.5,4.7,0.8,7.1c-1.1,4-6,7.8-13.7,10.9l-1.1,0.4c-0.8-0.5-1.6-0.9-2.3-1.4
	C547.5,371.5,544.4,366.9,544.2,362.6L544.2,362.6z M482.1,368.2c-1.6-2.5-2-5.6-1.1-8.5c1.5-3.8,5.3-6.2,9.3-6
	c0.8,0,1.7,0.1,2.5,0.2c2.6,0.5,4.9,2,6.4,4.2c1.6,2.4,2,5.4,1,8.1c-1.3,3.8-4.3,7.5-8.4,10.6C487.5,374.4,484,371.4,482.1,368.2
	L482.1,368.2z"/>
<path class="st0" d="M440.9,350.7c1.8-0.1,3.7,0.3,5.3,1.2c1,0.5,1.7,1.4,2,2.5c1.6,6.8-2.4,12.7-11.2,16.7v3.2
	c11-4.5,16.1-12,14.1-20.6c-0.5-1.9-1.7-3.5-3.5-4.4c-2.7-1.5-6.8-2-10.7-1.1v3.1C438.3,350.9,439.6,350.7,440.9,350.7z"/>
</svg>
