<?xml version="1.0" encoding="utf-8"?>
<!-- Generator: Adobe Illustrator 25.2.1, SVG Export Plug-In . SVG Version: 6.00 Build 0)  -->
<svg version="1.1" id="Layer_1" xmlns="http://www.w3.org/2000/svg" xmlns:xlink="http://www.w3.org/1999/xlink" x="0px" y="0px"
	 viewBox="0 0 768 500" style="enable-background:new 0 0 768 500;" xml:space="preserve">
<style type="text/css">
	.st0{fill:#B39EF5;}
	.st1{fill:#EAEEF1;}
	.st2{fill:none;stroke:#55BC9F;stroke-width:1.5;stroke-miterlimit:10;}
	.st3{fill:#FFFFFF;}
	.st4{fill:#4722E9;}
	.st5{fill:#55BC9F;}
	.st6{fill:none;stroke:#FFFFFF;stroke-width:3;stroke-linecap:round;stroke-linejoin:round;}
	.st7{fill:none;stroke:#FFFFFF;stroke-width:1.5;stroke-linecap:round;stroke-linejoin:round;}
	.st8{fill:none;stroke:#4722E9;stroke-width:2;stroke-miterlimit:10;}
</style>
<rect x="224" y="87" class="st0" width="331" height="198"/>
<rect x="218" y="93" class="st1" width="331" height="198"/>
<circle class="st2" cx="273" cy="198" r="19"/>
<path class="st3" d="M315,191h118c3.3,0,6,2.7,6,6l0,0c0,3.3-2.7,6-6,6H315c-3.3,0-6-2.7-6-6l0,0C309,193.7,311.7,191,315,191z"/>
<path class="st4" d="M486,187.5v18c0,6.4-5.1,11.5-11.5,11.5l0,0h-182c-6.4,0-11.5-5.1-11.5-11.5l0,0v-18c0-6.4-5.1-11.5-11.5-11.5
	h-70.9c-4.2,0-7.6,3.4-7.6,7.6c0,0,0,0,0,0v253.7c0,4.2,3.4,7.6,7.6,7.6c0,0,0,0,0,0h369.7c4.2,0,7.6-3.4,7.6-7.6c0,0,0,0,0,0V183.6
	c0-4.2-3.4-7.6-7.6-7.6c0,0,0,0,0,0h-70.9C491.1,176,486,181.1,486,187.5z"/>
<path class="st3" d="M413.3,385.9h-0.2c-8.1,0-12.1-3.3-16.3-6.8c-4.4-3.6-9-7.4-18.2-7.4l0,0c-0.8,0-1.5,0.7-1.5,1.5
	s0.7,1.5,1.5,1.5c8.1,0,12.1,3.3,16.4,6.8c4.4,3.6,9,7.4,18.2,7.4h0.2c3.6,0.1,7.2-0.7,10.5-2.2v-3.4
	C420.6,385.1,417,386,413.3,385.9z"/>
<path class="st5" d="M447.6,375.1h0.2c8.1,0,12.1,3.3,16.3,6.8c4.4,3.6,9,7.4,18.2,7.4h0.2c9.1,0,13.7-3.7,18.1-7.2
	c4.2-3.4,8.2-6.6,16.2-6.6h0.2c8.1,0,12.1,3.3,16.3,6.8c4.4,3.6,9,7.4,18.2,7.4l0,0c0.8,0,1.5-0.7,1.5-1.5s-0.7-1.5-1.5-1.5
	c-8.1,0-12.1-3.3-16.3-6.8c-4.5-3.6-9-7.4-18.2-7.4H517c-9.1,0-13.7,3.7-18.1,7.2c-4.2,3.4-8.2,6.6-16.2,6.6h-0.2
	c-8.1,0-12.1-3.3-16.4-6.8c-4.4-3.6-9-7.4-18.2-7.4h-0.2c-9.1,0-13.7,3.7-18.1,7.2c-1.8,1.5-3.7,2.8-5.7,4v3.4
	c2.7-1.4,5.3-3.1,7.6-5.1C435.6,378.3,439.6,375.1,447.6,375.1z"/>
<path class="st0" d="M498.9,61.3l39.9,18.6c3,1.4,4.3,5,2.9,8.1v0L431.3,324.2l0,0l-50.9-23.8l0,0L490.8,64.2
	C492.3,61.2,495.9,59.9,498.9,61.3z"/>
<polygon class="st0" points="429.9,327.2 379.2,303.5 377.5,348.7 396.4,357.5 "/>
<path class="st0" d="M396.4,357.5l-18.9-8.8l-0.9,23.5c-0.1,0.8,0.4,1.4,1.2,1.5c0.4,0.1,0.9-0.1,1.2-0.4L396.4,357.5z"/>
<line class="st6" x1="482.1" y1="99.4" x2="520.2" y2="117.2"/>
<line class="st7" x1="480.5" y1="114.2" x2="397.5" y2="292.2"/>
<line class="st7" x1="495.4" y1="121.1" x2="412.4" y2="299.1"/>
<line class="st7" x1="510.2" y1="128.1" x2="427.2" y2="306.1"/>
<line class="st8" x1="373.8" y1="346.5" x2="396.8" y2="357.5"/>
<circle class="st2" cx="273" cy="145" r="19"/>
<path class="st3" d="M315,138h118c3.3,0,6,2.7,6,6l0,0c0,3.3-2.7,6-6,6H315c-3.3,0-6-2.7-6-6l0,0C309,140.7,311.7,138,315,138z"/>
</svg>
