<svg width="240" height="83" viewBox="0 0 240 83" fill="none" xmlns="http://www.w3.org/2000/svg">
<path d="M128.991 45.156C130.587 45.156 132.015 43.908 132.015 41.748C132.015 39.576 130.587 38.316 128.991 38.316C127.395 38.316 125.967 39.576 125.967 41.748C125.967 43.908 127.395 45.156 128.991 45.156ZM128.991 44.244C127.863 44.244 127.107 43.248 127.107 41.748C127.107 40.248 127.863 39.228 128.991 39.228C130.119 39.228 130.887 40.248 130.887 41.748C130.887 43.248 130.119 44.244 128.991 44.244ZM134.097 45H135.189V40.812C135.621 39.696 136.293 39.312 136.833 39.312C137.097 39.312 137.253 39.336 137.469 39.42L137.673 38.46C137.469 38.352 137.265 38.316 136.977 38.316C136.245 38.316 135.585 38.844 135.129 39.672H135.093L134.997 38.484H134.097V45Z" fill="#939598"/>
<g clip-path="url(#clip0)">
<mask id="path-2-outside-1" maskUnits="userSpaceOnUse" x="7.16406" y="0.164062" width="86" height="61" fill="black">
<rect fill="white" x="7.16406" y="0.164062" width="86" height="61"/>
<path fill-rule="evenodd" clip-rule="evenodd" d="M89.7604 52.9647V6.76393C89.7604 3.68437 87.2279 1.16406 84.1321 1.16406H16.6054C13.5109 1.16406 10.9784 3.68437 10.9784 6.76393V52.9647L10.9867 52.9659H8.16406V54.3652C8.16406 57.446 10.6966 59.9663 13.7923 59.9663H86.9473C90.0431 59.9663 92.5744 57.446 92.5744 54.3652V52.9659H89.7522L89.7604 52.9647Z"/>
</mask>
<path fill-rule="evenodd" clip-rule="evenodd" d="M89.7604 52.9647V6.76393C89.7604 3.68437 87.2279 1.16406 84.1321 1.16406H16.6054C13.5109 1.16406 10.9784 3.68437 10.9784 6.76393V52.9647L10.9867 52.9659H8.16406V54.3652C8.16406 57.446 10.6966 59.9663 13.7923 59.9663H86.9473C90.0431 59.9663 92.5744 57.446 92.5744 54.3652V52.9659H89.7522L89.7604 52.9647Z" fill="#5D04D9"/>
<path d="M89.7604 52.9647L89.8187 53.3604C90.015 53.3315 90.1604 53.163 90.1604 52.9647H89.7604ZM10.9784 52.9647H10.5784C10.5784 53.1633 10.7242 53.3319 10.9207 53.3605L10.9784 52.9647ZM10.9867 52.9659V53.3659C11.1964 53.3659 11.3705 53.2039 11.3857 52.9948C11.4008 52.7856 11.2519 52.6003 11.0443 52.57L10.9867 52.9659ZM8.16406 52.9659V52.5659C7.94315 52.5659 7.76406 52.745 7.76406 52.9659H8.16406ZM92.5744 52.9659H92.9744C92.9744 52.745 92.7953 52.5659 92.5744 52.5659V52.9659ZM89.7522 52.9659L89.6939 52.5701C89.4865 52.6007 89.3379 52.7861 89.3532 52.9951C89.3686 53.2041 89.5426 53.3659 89.7522 53.3659V52.9659ZM89.3604 6.76393V52.9647H90.1604V6.76393H89.3604ZM84.1321 1.56406C87.0088 1.56406 89.3604 3.90717 89.3604 6.76393H90.1604C90.1604 3.46158 87.4469 0.764062 84.1321 0.764062V1.56406ZM16.6054 1.56406H84.1321V0.764062H16.6054V1.56406ZM11.3784 6.76393C11.3784 3.90711 13.73 1.56406 16.6054 1.56406V0.764062C13.2918 0.764062 10.5784 3.46164 10.5784 6.76393H11.3784ZM11.3784 52.9647V6.76393H10.5784V52.9647H11.3784ZM11.0443 52.57L11.036 52.5688L10.9207 53.3605L10.9291 53.3617L11.0443 52.57ZM8.16406 53.3659H10.9867V52.5659H8.16406V53.3659ZM8.56406 54.3652V52.9659H7.76406V54.3652H8.56406ZM13.7923 59.5663C10.9157 59.5663 8.56406 57.2233 8.56406 54.3652H7.76406C7.76406 57.6687 10.4775 60.3663 13.7923 60.3663V59.5663ZM86.9473 59.5663H13.7923V60.3663H86.9473V59.5663ZM92.1744 54.3652C92.1744 57.2234 89.8239 59.5663 86.9473 59.5663V60.3663C90.2623 60.3663 92.9744 57.6686 92.9744 54.3652H92.1744ZM92.1744 52.9659V54.3652H92.9744V52.9659H92.1744ZM89.7522 53.3659H92.5744V52.5659H89.7522V53.3659ZM89.7021 52.5689L89.6939 52.5701L89.8105 53.3616L89.8187 53.3604L89.7021 52.5689Z" fill="#4D4D4F" mask="url(#path-2-outside-1)"/>
<path d="M89.7606 6.76393V52.9647L61.2724 57.1639H39.8186L10.9785 52.9647V6.76393C10.9785 3.68437 13.511 1.16406 16.6055 1.16406H84.1323C87.228 1.16406 89.7606 3.68437 89.7606 6.76393Z" fill="#DFCDF7"/>
<path fill-rule="evenodd" clip-rule="evenodd" d="M84.1322 6.76392H16.6055V48.7654H84.1322V6.76392Z" fill="white" stroke="#4D4D4F" stroke-width="0.6" stroke-linecap="round" stroke-linejoin="round"/>
<path d="M92.5744 52.9658V54.3652C92.5744 57.446 90.0431 59.9663 86.9473 59.9663H13.7923C10.6966 59.9663 8.16406 57.446 8.16406 54.3652V52.9658H43.3348L44.1156 54.5112C44.4587 55.2053 45.3738 55.7645 46.1483 55.7645H54.5889C55.3622 55.7645 56.2785 55.2053 56.6216 54.5112L57.4024 52.9658H92.5744Z" fill="#5D04D9"/>
<g clip-path="url(#clip1)">
<path d="M47.752 30.9357C48.8464 30.9357 49.7336 30.0945 49.7336 29.0567C49.7336 28.019 48.8464 27.1777 47.752 27.1777C46.6577 27.1777 45.7705 28.019 45.7705 29.0567C45.7705 30.0945 46.6577 30.9357 47.752 30.9357Z" fill="#06BF9D"/>
<path d="M40.0062 27.6901C40.3815 27.6901 40.7117 27.7898 40.997 27.9891C41.1171 28.0745 41.2371 28.1172 41.3873 28.0887C41.5224 28.0745 41.6425 28.0033 41.7325 27.9036C41.8226 27.7898 41.8526 27.6759 41.8376 27.5335C41.8226 27.3912 41.7475 27.2773 41.6425 27.1919C41.1621 26.8503 40.6367 26.6794 40.0662 26.6794C39.3757 26.6794 38.7753 26.9214 38.2799 27.377C37.7845 27.8325 37.5293 28.3876 37.5293 29.0424C37.5293 29.6972 37.7845 30.2524 38.2799 30.7079C38.7753 31.1634 39.3757 31.4054 40.0662 31.4054C40.6367 31.4054 41.1621 31.2346 41.6425 30.9072C41.7626 30.8076 41.8226 30.6937 41.8376 30.5656C41.8526 30.4374 41.8226 30.3093 41.7325 30.1955C41.6425 30.0816 41.5224 30.0246 41.3723 30.0104C41.2221 29.9962 41.102 30.0246 40.997 30.11C40.7117 30.3093 40.3665 30.409 40.0062 30.409C39.6309 30.409 39.3007 30.2809 39.0154 30.0104C38.7302 29.7257 38.5801 29.4125 38.5801 29.0567C38.5801 28.6866 38.7302 28.3734 39.0154 28.1029C39.3157 27.8325 39.6459 27.6901 40.0062 27.6901Z" fill="black"/>
<path d="M44.9747 26.6794C44.3142 26.6794 43.7588 26.9072 43.2934 27.377C42.8281 27.8467 42.5879 28.4019 42.5879 29.0567C42.5879 29.7115 42.8131 30.2666 43.2784 30.7221C43.7438 31.1919 44.3142 31.4197 44.9747 31.4197C45.6502 31.4197 46.2057 31.1777 46.641 30.7079C47.1064 30.2809 47.3315 29.7399 47.3315 29.0851C47.3315 28.4303 47.1064 27.8609 46.641 27.3912C46.1907 26.9214 45.6352 26.6794 44.9747 26.6794ZM45.9054 30.0531C45.6502 30.2809 45.335 30.409 44.9747 30.409C44.6144 30.409 44.2992 30.2951 44.044 30.0531C43.8038 29.7826 43.6837 29.441 43.6837 29.0567C43.6837 28.6723 43.8038 28.3449 44.044 28.0745C44.3292 27.8325 44.6445 27.7186 44.9747 27.7186C45.32 27.7186 45.6202 27.8325 45.9054 28.0745C46.1606 28.3449 46.2957 28.6723 46.2957 29.0567C46.2807 29.441 46.1606 29.7684 45.9054 30.0531Z" fill="black"/>
<path d="M50.4396 26.6794C49.7791 26.6794 49.2236 26.9072 48.7583 27.377C48.2929 27.8467 48.0527 28.4019 48.0527 29.0567C48.0527 29.7115 48.2779 30.2666 48.7433 30.7221C49.2086 31.1919 49.7791 31.4197 50.4396 31.4197C51.1151 31.4197 51.6705 31.1777 52.1059 30.7079C52.5712 30.2809 52.7964 29.7399 52.7964 29.0851C52.7964 28.4303 52.5712 27.8609 52.1059 27.3912C51.6555 26.9214 51.1001 26.6794 50.4396 26.6794ZM51.3703 30.0531C51.1151 30.2809 50.7998 30.409 50.4396 30.409C50.0793 30.409 49.7641 30.2951 49.5089 30.0531C49.2687 29.7826 49.1486 29.441 49.1486 29.0567C49.1486 28.6723 49.2687 28.3449 49.5089 28.0745C49.7941 27.8325 50.1093 27.7186 50.4396 27.7186C50.7698 27.7186 51.0851 27.8325 51.3703 28.0745C51.6255 28.3449 51.7606 28.6723 51.7606 29.0567C51.7606 29.441 51.6255 29.7684 51.3703 30.0531Z" fill="black"/>
<path d="M56.0988 26.6795C55.6184 26.6795 55.183 26.8076 54.7927 27.0638V25.5122C54.7927 25.2275 54.5526 24.9998 54.2523 24.9998C53.9521 24.9998 53.7119 25.2275 53.7119 25.5122V29.1706C53.7119 29.199 53.7119 29.2275 53.7269 29.256C53.772 29.8254 53.9971 30.3094 54.4175 30.7222C54.8828 31.1919 55.4533 31.4197 56.1138 31.4197C56.7893 31.4197 57.3447 31.1777 57.78 30.7079C58.2454 30.2809 58.4706 29.74 58.4706 29.0852C58.4706 28.4304 58.2454 27.861 57.78 27.3912C57.3147 26.9215 56.7593 26.6795 56.0988 26.6795ZM57.0295 30.0531C56.7743 30.2809 56.459 30.409 56.0988 30.409C55.7385 30.409 55.4232 30.2951 55.168 30.0531C54.9278 29.7827 54.8078 29.441 54.8078 29.0567C54.8078 28.6724 54.9278 28.345 55.168 28.0745C55.4533 27.8325 55.7685 27.7186 56.0988 27.7186C56.429 27.7186 56.7442 27.8325 57.0295 28.0745C57.2847 28.345 57.4198 28.6724 57.4198 29.0567C57.4198 29.441 57.2847 29.7684 57.0295 30.0531Z" fill="black"/>
<path d="M63.3792 26.8218C63.2741 26.7221 63.154 26.6794 63.0039 26.6794C62.8538 26.6794 62.7337 26.7221 62.6286 26.8218C62.5235 26.9214 62.4785 27.0353 62.4785 27.1777V29.4125C62.4785 29.683 62.3734 29.9108 62.1783 30.0958C61.9831 30.2809 61.7429 30.3805 61.4577 30.3805C61.1725 30.3805 60.9323 30.2809 60.7221 30.0958C60.527 29.9108 60.4219 29.683 60.4219 29.4125V27.1777C60.4219 27.0353 60.3769 26.9072 60.2718 26.8218C60.1667 26.7221 60.0466 26.6794 59.8965 26.6794C59.7464 26.6794 59.6263 26.7221 59.5212 26.8218C59.4161 26.9214 59.3711 27.0353 59.3711 27.1777V29.4125C59.3711 29.9535 59.5813 30.4232 59.9866 30.8076C60.3919 31.1919 60.8873 31.3912 61.4577 31.3912C61.803 31.3912 62.1182 31.32 62.4034 31.1634C62.3284 31.4054 62.1632 31.6047 61.9381 31.7755C61.7129 31.9321 61.4727 32.0175 61.2325 32.0175C60.9923 32.0175 60.7972 31.989 60.6321 31.9036C60.4669 31.8325 60.3168 31.8182 60.1817 31.8609C60.0316 31.9036 59.9415 31.989 59.8665 32.1029C59.8064 32.231 59.8064 32.3592 59.8515 32.5015C59.8965 32.6296 59.9866 32.7293 60.1367 32.7862C60.4669 32.9428 60.8122 33.0282 61.1575 33.0282C61.818 33.0282 62.3884 32.8147 62.8388 32.3734C63.3041 31.9321 63.5293 31.4054 63.5293 30.7791V27.1777C63.5293 27.0495 63.4843 26.9214 63.3792 26.8218Z" fill="black"/>
</g>
</g>
<path d="M107.581 20.8825V22.9784H69.8066V20.8825C69.8066 18.5775 71.6962 16.6914 74.0036 16.6914H103.383C105.692 16.6914 107.581 18.5775 107.581 20.8825Z" fill="#4D4D4F"/>
<path fill-rule="evenodd" clip-rule="evenodd" d="M83.2415 20.5383H88.272C88.539 20.5383 88.7557 20.3219 88.7557 20.0553C88.7557 19.7887 88.539 19.5723 88.272 19.5723H83.2415C82.9745 19.5723 82.7578 19.7887 82.7578 20.0553C82.7578 20.3219 82.9749 20.5383 83.2415 20.5383Z" fill="white"/>
<path fill-rule="evenodd" clip-rule="evenodd" d="M91.7542 20.5378H93.1085C93.3755 20.5378 93.5922 20.3214 93.5922 20.0548C93.5922 19.7882 93.3755 19.5718 93.1085 19.5718H91.7542C91.4872 19.5718 91.2705 19.7882 91.2705 20.0548C91.2705 20.3214 91.4876 20.5378 91.7542 20.5378Z" fill="white"/>
<path d="M107.906 19.7523V21.9843H67.6748V19.7523C67.6748 17.2974 69.687 15.2888 72.145 15.2888H103.436C105.894 15.2888 107.906 17.2974 107.906 19.7523Z" fill="#5D04D9"/>
<path fill-rule="evenodd" clip-rule="evenodd" d="M82.4991 19.2119H87.8253C88.0927 19.2119 88.3094 18.9955 88.3094 18.7285C88.3094 18.4615 88.0927 18.2451 87.8253 18.2451H82.4991C82.2317 18.2451 82.0146 18.4619 82.0146 18.7285C82.0146 18.9952 82.2321 19.2119 82.4991 19.2119Z" fill="white"/>
<path fill-rule="evenodd" clip-rule="evenodd" d="M91.5368 19.2119H92.5053C92.7727 19.2119 92.9894 18.9955 92.9894 18.7285C92.9894 18.4615 92.7727 18.2451 92.5053 18.2451H91.5368C91.2694 18.2451 91.0527 18.4619 91.0527 18.7285C91.0527 18.9952 91.2694 19.2119 91.5368 19.2119Z" fill="white"/>
<path d="M107.581 20.8835V75.3693C107.581 77.675 105.692 79.5604 103.384 79.5604H74.004C71.6962 79.5604 69.8066 77.6746 69.8066 75.3693V20.8835C69.8066 18.5785 71.6966 16.6924 74.004 16.6924H103.384C105.692 16.6924 107.581 18.5785 107.581 20.8835Z" fill="white"/>
<path d="M107.581 73.2732V75.3691C107.581 77.6749 105.692 79.5602 103.384 79.5602H74.004C72.3095 79.5602 70.8406 78.5443 70.1797 77.0921C69.9382 76.5635 69.8066 75.9816 69.8066 75.3687V73.2732H107.581Z" fill="#4D4D4F"/>
<path fill-rule="evenodd" clip-rule="evenodd" d="M86.597 76.9228H90.7936C91.0606 76.9228 91.2773 76.7064 91.2773 76.4398C91.2773 76.1732 91.0606 75.9568 90.7936 75.9568H86.597C86.33 75.9568 86.1133 76.1732 86.1133 76.4398C86.1133 76.7064 86.33 76.9228 86.597 76.9228Z" fill="white"/>
<path d="M107.905 19.7525V77.7814C107.905 80.2366 105.893 82.2449 103.435 82.2449H72.1444C69.6864 82.2449 67.6738 80.2366 67.6738 77.7814V19.7525C67.6738 17.2976 69.686 15.289 72.1444 15.289L103.435 15.2886C105.893 15.289 107.905 17.2976 107.905 19.7525Z" fill="white"/>
<path d="M107.906 75.5493V77.7816C107.906 80.2369 105.894 82.2451 103.436 82.2451H72.145C70.3406 82.2451 68.7757 81.1636 68.0718 79.6171C67.8145 79.0537 67.6748 78.4347 67.6748 77.7816V75.5493H107.906Z" fill="#5D04D9"/>
<path fill-rule="evenodd" clip-rule="evenodd" d="M85.5554 79.4069H90.0256C90.293 79.4069 90.5097 79.1901 90.5097 78.9235C90.5097 78.6565 90.293 78.4397 90.0256 78.4397H85.5554C85.288 78.4397 85.0713 78.6565 85.0713 78.9235C85.0713 79.1901 85.288 79.4069 85.5554 79.4069Z" fill="white"/>
<path fill-rule="evenodd" clip-rule="evenodd" d="M107.616 27.3865V77.7809C107.616 80.077 105.735 81.9546 103.436 81.9546H75.6838C75.5236 81.9546 75.3936 82.0844 75.3936 82.2444C75.3936 82.4044 75.5236 82.5342 75.6838 82.5342H103.436C106.055 82.5342 108.197 80.3958 108.197 77.7809V27.3865C108.197 27.2265 108.067 27.0967 107.907 27.0967C107.746 27.0967 107.616 27.2265 107.616 27.3865Z" fill="#4D4D4F"/>
<path fill-rule="evenodd" clip-rule="evenodd" d="M67.9642 77.7812V28.388C67.9642 28.228 67.8342 28.0981 67.674 28.0981C67.5138 28.0981 67.3838 28.228 67.3838 28.388V77.7808C67.3838 77.9408 67.5138 78.0706 67.674 78.0706C67.8342 78.071 67.9642 77.9412 67.9642 77.7812Z" fill="#4D4D4F"/>
<path fill-rule="evenodd" clip-rule="evenodd" d="M67.9646 34.0808V19.7533C67.9646 17.458 69.846 15.5796 72.1446 15.5796L103.435 15.5792C105.734 15.5792 107.615 17.4576 107.615 19.7529V34.7567C107.615 34.9167 107.745 35.0465 107.905 35.0465C108.065 35.0465 108.195 34.9167 108.195 34.7567V19.7533C108.195 17.1392 106.053 15 103.435 15L72.1446 15.0004C69.5268 15.0004 67.3838 17.1392 67.3838 19.7537V34.0812C67.3838 34.2412 67.5138 34.371 67.674 34.371C67.8342 34.371 67.9646 34.2408 67.9646 34.0808Z" fill="#4D4D4F"/>
<path fill-rule="evenodd" clip-rule="evenodd" d="M75.0121 56.106H80.3874C80.5476 56.106 80.6776 56.2359 80.6776 56.3959C80.6776 56.5558 80.5476 56.6857 80.3874 56.6857H74.7219C74.5617 56.6857 74.4316 56.5558 74.4316 56.3959V50.7376C74.4316 50.5776 74.5617 50.4478 74.7219 50.4478C74.8821 50.4478 75.0121 50.5776 75.0121 50.7376V56.106Z" fill="#4D4D4F"/>
<path fill-rule="evenodd" clip-rule="evenodd" d="M102.374 56.106V50.7376C102.374 50.5776 102.504 50.4478 102.665 50.4478C102.825 50.4478 102.955 50.5776 102.955 50.7376V56.3959C102.955 56.5558 102.825 56.6857 102.665 56.6857H96.9982C96.838 56.6857 96.708 56.5558 96.708 56.3959C96.708 56.2359 96.838 56.106 96.9982 56.106H102.374Z" fill="#4D4D4F"/>
<path fill-rule="evenodd" clip-rule="evenodd" d="M75.0131 28.7825V34.1498C75.0131 34.3098 74.883 34.4396 74.7228 34.4396C74.5626 34.4396 74.4326 34.3098 74.4326 34.1498V28.4927C74.4326 28.3327 74.5626 28.2029 74.7228 28.2029H80.3884C80.5486 28.2029 80.6786 28.3327 80.6786 28.4927C80.6786 28.6527 80.5486 28.7825 80.3884 28.7825H75.0131Z" fill="#4D4D4F"/>
<path fill-rule="evenodd" clip-rule="evenodd" d="M102.374 28.7823H96.9982C96.838 28.7823 96.708 28.6524 96.708 28.4924C96.708 28.3325 96.838 28.2026 96.9982 28.2026H102.665C102.825 28.2026 102.955 28.3325 102.955 28.4924V34.1496C102.955 34.3095 102.825 34.4394 102.665 34.4394C102.504 34.4394 102.374 34.3095 102.374 34.1496V28.7823Z" fill="#4D4D4F"/>
<path d="M100.864 30.2917H76.5254V54.5954H100.864V30.2917Z" fill="white"/>
<path d="M77.8379 31.604V53.2827H99.5477V31.604H77.8379ZM98.8473 52.5833H78.5387V32.3034H98.8473V52.5833ZM85.5415 33.7019H79.9391V39.296H85.5415V33.7019ZM84.8411 38.597H80.6391V34.4013H84.8411V38.597ZM84.1407 37.898H81.3395V35.1007H84.1407V37.898ZM97.4465 33.7019H91.844V39.296H97.4465V33.7019ZM96.7464 38.597H92.5444V34.4013H96.7464V38.597ZM96.046 37.898H93.2448V35.1007H96.046V37.898ZM85.5415 45.5903H79.9391V51.1845H85.5415V45.5903ZM84.8411 50.4851H80.6391V46.2894H84.8411V50.4851ZM84.1407 49.7861H81.3395V46.9888H84.1407V49.7861ZM86.942 35.7997H86.2416V33.7019H86.942V35.7997ZM86.942 46.2898V46.9888H88.3424V47.6882H86.942V48.3876H86.2416V46.2898H86.942ZM80.6391 43.4925H82.0399V44.8913H84.1407V43.4925H86.2416V44.8913H87.6424V42.0941H88.3424V46.2898H89.0428V45.5903H89.7428V48.3876H88.342V49.087H89.7428V49.7861H90.4428V50.4851H89.0424V51.1845H91.1432V48.3872H91.8432V49.0866H92.5436V48.3872H93.2437V49.7857H93.9437V50.4847H92.5432V51.1841H94.6441V49.7853H96.0445V47.6874H93.9437V46.988H96.0445V46.2886H93.9437V44.8913H91.8428V44.1919H92.5432V42.7931H93.9437V40.6952H92.5432V42.0941H90.4428V40.6952H92.544V39.9958H89.7424V42.7931H91.8432V43.4925H89.042V41.3942H87.6412V39.2964H86.9412V40.6952H85.5408V39.9958H83.44V40.6952H84.8408V41.3942H83.44V42.0937H84.8408V42.7927H83.44V44.1915H82.7399V40.6952H80.6387V39.9958H79.9387V44.1919H80.6387L80.6391 43.4925ZM91.144 45.5903V46.2898H91.844V45.5903H93.2448V47.6882H92.5448V46.9888H91.8444V47.6882H90.4436V45.5903H91.144ZM85.5415 42.7931V41.3942H86.942V42.7931H85.5415ZM80.6391 41.3942H82.0399V42.0941H80.6391V41.3942ZM94.6452 40.6956H97.4465V42.7931H96.7464V41.3942H95.3456V43.4921H96.7464V44.8909H97.4465V46.9888H96.7464V45.5903H95.3456V44.1915H94.6452V40.6956ZM88.3428 38.5974H86.2419V37.1985H87.6424V33.7019H90.4436V34.4013H88.3428V38.5974ZM88.3428 39.2964V38.5974H89.0432V35.1007H89.7432V35.8001H91.144V37.898H89.7432V38.5974H90.4432V39.2964H88.3428ZM87.6424 49.087H88.3424V50.4851H86.2416V49.7861H87.642V49.087H87.6424ZM96.7464 49.7861H97.4465V51.1849H95.3456V50.4855H96.7464V49.7861Z" fill="#4D4D4F"/>
<path d="M102.283 36.9597H74.9287V38.5355H102.283V36.9597Z" fill="#5D04D9"/>
<path d="M98.7732 67.1845C98.7732 68.2471 97.9025 69.1166 96.8384 69.1166H80.4641C79.4 69.1166 78.5293 68.2471 78.5293 67.1845V64.9838C78.5293 63.9212 79.4 63.0518 80.4641 63.0518H96.8384C97.9025 63.0518 98.7732 63.9212 98.7732 64.9838V67.1845Z" fill="#5D04D9"/>
<path d="M84.0655 67.1575C84.038 67.1459 84.0152 67.127 83.9966 67.1003C83.978 67.074 83.9688 67.0458 83.9688 67.0157C83.9688 66.9763 83.9823 66.9427 84.009 66.9137C84.0353 66.8851 84.0694 66.8708 84.1108 66.8708C84.1336 66.8708 84.1553 66.8754 84.1765 66.8847C84.3882 66.979 84.6154 67.0261 84.8576 67.0261C85.2608 67.0261 85.462 66.8936 85.462 66.6289C85.462 66.5597 85.4361 66.5025 85.3843 66.4566C85.3324 66.4106 85.2686 66.3743 85.1927 66.348C85.1165 66.3213 85.0089 66.2896 84.8681 66.2533C84.6815 66.2046 84.5306 66.1583 84.4153 66.1134C84.3 66.0686 84.2009 66.001 84.1181 65.9113C84.0353 65.8217 83.9935 65.7023 83.9935 65.5524C83.9935 65.4214 84.028 65.3023 84.0972 65.1953C84.1661 65.0883 84.2686 65.0033 84.4037 64.9399C84.538 64.8765 84.7001 64.8452 84.8893 64.8452C85.1428 64.8452 85.3723 64.8831 85.577 64.9588C85.6416 64.982 85.6741 65.0276 85.6741 65.0968C85.6741 65.1335 85.6609 65.1671 85.6362 65.1969C85.6106 65.227 85.5774 65.2417 85.5359 65.2417C85.522 65.2417 85.5034 65.237 85.481 65.2282C85.3007 65.1659 85.1153 65.1346 84.9242 65.1346C84.7423 65.1346 84.5945 65.1694 84.4803 65.2382C84.3658 65.3074 84.3089 65.404 84.3089 65.528C84.3089 65.6107 84.336 65.6783 84.3902 65.7301C84.4443 65.7819 84.512 65.8221 84.5945 65.8507C84.6757 65.8793 84.7872 65.9102 84.9276 65.9422C85.1099 65.9859 85.257 66.0296 85.3688 66.0732C85.4802 66.1169 85.5758 66.1849 85.6555 66.2769C85.7349 66.3688 85.7743 66.4929 85.7743 66.6498C85.7743 66.7788 85.7372 66.894 85.6636 66.9964C85.5901 67.0988 85.4864 67.1788 85.3529 67.2363C85.2194 67.2939 85.065 67.3225 84.8897 67.3225C84.5956 67.3233 84.3217 67.268 84.0655 67.1575Z" fill="white"/>
<path d="M86.6974 67.1731C86.5147 67.0727 86.3704 66.9293 86.2659 66.7419C86.161 66.5541 86.1084 66.3354 86.1084 66.0846C86.1084 65.8338 86.1606 65.6147 86.2659 65.4269C86.3708 65.2391 86.5147 65.0958 86.6974 64.9953C86.8804 64.8956 87.0874 64.845 87.318 64.845C87.4748 64.845 87.6145 64.8631 87.7383 64.9002C87.8609 64.9369 87.984 64.9899 88.1059 65.0587C88.1566 65.0865 88.1821 65.1301 88.1821 65.19C88.1821 65.2244 88.1694 65.2553 88.1442 65.2816C88.1191 65.3079 88.0854 65.321 88.0444 65.321C88.0208 65.321 88.0003 65.3164 87.9821 65.3071C87.8807 65.2546 87.7816 65.214 87.6849 65.1866C87.5881 65.1591 87.4763 65.1448 87.3494 65.1448C87.1517 65.1448 86.9825 65.1862 86.8432 65.2677C86.7039 65.3492 86.5987 65.4605 86.5283 65.6023C86.4578 65.7434 86.423 65.9045 86.423 66.0838C86.423 66.2631 86.4582 66.4235 86.5283 66.5649C86.5987 66.7063 86.7035 66.818 86.8432 66.8995C86.9825 66.9811 87.1513 67.022 87.3494 67.022C87.4763 67.022 87.5881 67.0081 87.6849 66.9807C87.7816 66.9529 87.8807 66.9127 87.9821 66.8601C88.0006 66.8512 88.0208 66.8462 88.0444 66.8462C88.0858 66.8462 88.1191 66.8586 88.1442 66.8841C88.1697 66.9096 88.1821 66.9405 88.1821 66.9772C88.1821 67.0371 88.1566 67.0804 88.1059 67.1082C87.984 67.177 87.8609 67.2303 87.7383 67.267C87.6145 67.3037 87.4748 67.3223 87.318 67.3223C87.0874 67.3231 86.8808 67.2732 86.6974 67.1731Z" fill="white"/>
<path d="M88.5355 67.261C88.5069 67.2313 88.4922 67.1942 88.4922 67.1509C88.4922 67.1324 88.498 67.1096 88.5096 67.0817L89.3907 65.0044C89.4089 64.9626 89.4348 64.929 89.4685 64.9027C89.5018 64.8761 89.5428 64.8625 89.5916 64.8625H89.6256C89.6744 64.8625 89.715 64.8757 89.7487 64.9027C89.7819 64.929 89.8079 64.963 89.8257 65.0044L90.7076 67.0817C90.7188 67.1096 90.7246 67.1324 90.7246 67.1509C90.7246 67.1942 90.7099 67.2313 90.6816 67.261C90.653 67.2912 90.6155 67.3062 90.5694 67.3062C90.5369 67.3062 90.5079 67.2977 90.4816 67.28C90.4545 67.263 90.4347 67.2394 90.4212 67.2093L90.1968 66.671H89.0216L88.7967 67.2093C88.7832 67.2394 88.7627 67.2626 88.7364 67.28C88.7101 67.2974 88.6806 67.3062 88.6481 67.3062C88.6017 67.3059 88.5642 67.2908 88.5355 67.261ZM89.1419 66.3846H90.0753L89.6082 65.2629L89.1419 66.3846Z" fill="white"/>
<path d="M91.2777 67.2607C91.2479 67.2309 91.2324 67.1938 91.2324 67.1505V65.0902C91.2324 65.028 91.2545 64.9746 91.2982 64.9294C91.3419 64.8846 91.3949 64.8622 91.4572 64.8622H91.5021C91.576 64.8622 91.6391 64.8966 91.6921 64.9658L93.0229 66.8843V65.021C93.0229 64.977 93.038 64.9399 93.0674 64.9086C93.0972 64.8777 93.1343 64.8618 93.1777 64.8618C93.2214 64.8618 93.2593 64.8777 93.2903 64.9086C93.3212 64.9395 93.3367 64.977 93.3367 65.021V67.081C93.3367 67.1432 93.3143 67.1961 93.2694 67.2398C93.2245 67.2835 93.1707 67.3051 93.1088 67.3051H93.0674C93.0306 67.3051 92.9962 67.2962 92.9637 67.2788C92.9316 67.2618 92.9049 67.2394 92.884 67.2116L91.5466 65.2826V67.1498C91.5466 67.193 91.5308 67.2301 91.4994 67.2599C91.4685 67.29 91.4309 67.3051 91.3872 67.3051C91.3446 67.3055 91.3075 67.2904 91.2777 67.2607Z" fill="white"/>
<path d="M197.943 5.88223V7.97815H160.168V5.88223C160.168 3.57726 162.058 1.69116 164.365 1.69116H193.745C196.053 1.69116 197.943 3.57726 197.943 5.88223Z" fill="#4D4D4F"/>
<path fill-rule="evenodd" clip-rule="evenodd" d="M173.602 5.53757H178.632C178.899 5.53757 179.116 5.32118 179.116 5.05455C179.116 4.78793 178.899 4.57153 178.632 4.57153H173.602C173.335 4.57153 173.118 4.78793 173.118 5.05455C173.118 5.32118 173.335 5.53757 173.602 5.53757Z" fill="white"/>
<path fill-rule="evenodd" clip-rule="evenodd" d="M182.116 5.53733H183.47C183.737 5.53733 183.954 5.32094 183.954 5.05431C183.954 4.78768 183.737 4.57129 183.47 4.57129H182.116C181.849 4.57129 181.632 4.78768 181.632 5.05431C181.632 5.32094 181.849 5.53733 182.116 5.53733Z" fill="white"/>
<path d="M198.266 4.75207V6.98401H158.035V4.75207C158.035 2.29717 160.047 0.288574 162.505 0.288574H193.796C196.254 0.288574 198.266 2.29717 198.266 4.75207Z" fill="#5D04D9"/>
<path fill-rule="evenodd" clip-rule="evenodd" d="M172.86 4.21144H178.187C178.454 4.21144 178.671 3.99505 178.671 3.72804C178.671 3.46102 178.454 3.24463 178.187 3.24463H172.86C172.593 3.24463 172.376 3.46141 172.376 3.72804C172.376 3.99466 172.593 4.21144 172.86 4.21144Z" fill="white"/>
<path fill-rule="evenodd" clip-rule="evenodd" d="M181.897 4.21144H182.866C183.133 4.21144 183.35 3.99505 183.35 3.72804C183.35 3.46102 183.133 3.24463 182.866 3.24463H181.897C181.63 3.24463 181.413 3.46141 181.413 3.72804C181.413 3.99466 181.63 4.21144 181.897 4.21144Z" fill="white"/>
<path d="M197.942 5.88296V60.3688C197.942 62.6745 196.053 64.5599 193.745 64.5599H164.365C162.058 64.5599 160.168 62.6742 160.168 60.3688V5.88296C160.168 3.57799 162.058 1.69189 164.365 1.69189H193.745C196.053 1.69189 197.942 3.57799 197.942 5.88296Z" fill="white"/>
<path d="M197.942 58.2727V60.3686C197.942 62.6744 196.053 64.5597 193.745 64.5597H164.365C162.671 64.5597 161.202 63.5438 160.541 62.0917C160.3 61.563 160.168 60.9811 160.168 60.3682V58.2727H197.942Z" fill="#4D4D4F"/>
<path fill-rule="evenodd" clip-rule="evenodd" d="M176.957 61.9226H181.154C181.421 61.9226 181.638 61.7062 181.638 61.4396C181.638 61.1729 181.421 60.9565 181.154 60.9565H176.957C176.69 60.9565 176.474 61.1729 176.474 61.4396C176.474 61.7062 176.69 61.9226 176.957 61.9226Z" fill="white"/>
<path d="M198.265 4.75221V62.7811C198.265 65.2364 196.254 67.2446 193.795 67.2446H162.505C160.047 67.2446 158.034 65.2364 158.034 62.7811V4.75221C158.034 2.29731 160.046 0.288717 162.505 0.288717L193.795 0.28833C196.254 0.288716 198.265 2.29731 198.265 4.75221Z" fill="white"/>
<g clip-path="url(#clip2)">
<path d="M175.752 32.2646C176.846 32.2646 177.734 31.4233 177.734 30.3856C177.734 29.3479 176.846 28.5066 175.752 28.5066C174.658 28.5066 173.771 29.3479 173.771 30.3856C173.771 31.4233 174.658 32.2646 175.752 32.2646Z" fill="#06BF9D"/>
<path d="M168.006 29.019C168.381 29.019 168.712 29.1186 168.997 29.3179C169.117 29.4033 169.237 29.446 169.387 29.4176C169.522 29.4033 169.642 29.3321 169.733 29.2325C169.823 29.1186 169.853 29.0047 169.838 28.8624C169.823 28.72 169.748 28.6062 169.642 28.5208C169.162 28.1791 168.637 28.0083 168.066 28.0083C167.376 28.0083 166.775 28.2503 166.28 28.7058C165.784 29.1613 165.529 29.7165 165.529 30.3713C165.529 31.0261 165.784 31.5813 166.28 32.0368C166.775 32.4923 167.376 32.7343 168.066 32.7343C168.637 32.7343 169.162 32.5635 169.642 32.2361C169.763 32.1364 169.823 32.0225 169.838 31.8944C169.853 31.7663 169.823 31.6382 169.733 31.5243C169.642 31.4104 169.522 31.3535 169.372 31.3393C169.222 31.325 169.102 31.3535 168.997 31.4389C168.712 31.6382 168.366 31.7378 168.006 31.7378C167.631 31.7378 167.301 31.6097 167.015 31.3393C166.73 31.0546 166.58 30.7414 166.58 30.3855C166.58 30.0154 166.73 29.7023 167.015 29.4318C167.316 29.1613 167.646 29.019 168.006 29.019Z" fill="black"/>
<path d="M172.975 28.0083C172.314 28.0083 171.759 28.2361 171.293 28.7058C170.828 29.1756 170.588 29.7307 170.588 30.3855C170.588 31.0403 170.813 31.5955 171.278 32.051C171.744 32.5208 172.314 32.7485 172.975 32.7485C173.65 32.7485 174.206 32.5065 174.641 32.0368C175.106 31.6097 175.332 31.0688 175.332 30.414C175.332 29.7592 175.106 29.1898 174.641 28.72C174.191 28.2503 173.635 28.0083 172.975 28.0083ZM173.905 31.382C173.65 31.6097 173.335 31.7378 172.975 31.7378C172.614 31.7378 172.299 31.624 172.044 31.382C171.804 31.1115 171.684 30.7699 171.684 30.3855C171.684 30.0012 171.804 29.6738 172.044 29.4033C172.329 29.1613 172.644 29.0474 172.975 29.0474C173.32 29.0474 173.62 29.1613 173.905 29.4033C174.161 29.6738 174.296 30.0012 174.296 30.3855C174.281 30.7699 174.161 31.0973 173.905 31.382Z" fill="black"/>
<path d="M178.44 28.0083C177.779 28.0083 177.224 28.2361 176.758 28.7058C176.293 29.1756 176.053 29.7307 176.053 30.3855C176.053 31.0403 176.278 31.5955 176.743 32.051C177.209 32.5208 177.779 32.7485 178.44 32.7485C179.115 32.7485 179.671 32.5065 180.106 32.0368C180.571 31.6097 180.796 31.0688 180.796 30.414C180.796 29.7592 180.571 29.1898 180.106 28.72C179.656 28.2503 179.1 28.0083 178.44 28.0083ZM179.37 31.382C179.115 31.6097 178.8 31.7378 178.44 31.7378C178.079 31.7378 177.764 31.624 177.509 31.382C177.269 31.1115 177.149 30.7699 177.149 30.3855C177.149 30.0012 177.269 29.6738 177.509 29.4033C177.794 29.1613 178.109 29.0474 178.44 29.0474C178.77 29.0474 179.085 29.1613 179.37 29.4033C179.625 29.6738 179.761 30.0012 179.761 30.3855C179.761 30.7699 179.625 31.0973 179.37 31.382Z" fill="black"/>
<path d="M184.099 28.0083C183.618 28.0083 183.183 28.1364 182.793 28.3927V26.8411C182.793 26.5564 182.553 26.3286 182.252 26.3286C181.952 26.3286 181.712 26.5564 181.712 26.8411V30.4994C181.712 30.5279 181.712 30.5564 181.727 30.5848C181.772 31.1542 181.997 31.6382 182.417 32.051C182.883 32.5208 183.453 32.7485 184.114 32.7485C184.789 32.7485 185.345 32.5065 185.78 32.0368C186.245 31.6098 186.471 31.0688 186.471 30.414C186.471 29.7592 186.245 29.1898 185.78 28.7201C185.315 28.2503 184.759 28.0083 184.099 28.0083ZM185.029 31.382C184.774 31.6098 184.459 31.7379 184.099 31.7379C183.738 31.7379 183.423 31.624 183.168 31.382C182.928 31.1115 182.808 30.7699 182.808 30.3856C182.808 30.0012 182.928 29.6738 183.168 29.4033C183.453 29.1614 183.768 29.0475 184.099 29.0475C184.429 29.0475 184.744 29.1614 185.029 29.4033C185.285 29.6738 185.42 30.0012 185.42 30.3856C185.42 30.7699 185.285 31.0973 185.029 31.382Z" fill="black"/>
<path d="M191.379 28.1506C191.274 28.051 191.154 28.0083 191.004 28.0083C190.854 28.0083 190.734 28.051 190.629 28.1506C190.524 28.2503 190.478 28.3642 190.478 28.5065V30.7414C190.478 31.0119 190.373 31.2396 190.178 31.4247C189.983 31.6097 189.743 31.7094 189.458 31.7094C189.172 31.7094 188.932 31.6097 188.722 31.4247C188.527 31.2396 188.422 31.0119 188.422 30.7414V28.5065C188.422 28.3642 188.377 28.2361 188.272 28.1506C188.167 28.051 188.047 28.0083 187.896 28.0083C187.746 28.0083 187.626 28.051 187.521 28.1506C187.416 28.2503 187.371 28.3642 187.371 28.5065V30.7414C187.371 31.2823 187.581 31.7521 187.987 32.1364C188.392 32.5208 188.887 32.72 189.458 32.72C189.803 32.72 190.118 32.6489 190.403 32.4923C190.328 32.7343 190.163 32.9336 189.938 33.1044C189.713 33.261 189.473 33.3464 189.233 33.3464C188.992 33.3464 188.797 33.3179 188.632 33.2325C188.467 33.1613 188.317 33.1471 188.182 33.1898C188.032 33.2325 187.942 33.3179 187.866 33.4318C187.806 33.5599 187.806 33.688 187.851 33.8304C187.896 33.9585 187.987 34.0581 188.137 34.1151C188.467 34.2716 188.812 34.3571 189.157 34.3571C189.818 34.3571 190.388 34.1435 190.839 33.7022C191.304 33.261 191.529 32.7343 191.529 32.1079V28.5065C191.529 28.3784 191.484 28.2503 191.379 28.1506Z" fill="black"/>
</g>
<path d="M198.266 60.5488V62.7812C198.266 65.2365 196.254 67.2447 193.796 67.2447H162.505C160.701 67.2447 159.136 66.1631 158.432 64.6166C158.175 64.0532 158.035 63.4342 158.035 62.7812V60.5488H198.266Z" fill="#5D04D9"/>
<path fill-rule="evenodd" clip-rule="evenodd" d="M175.916 64.4067H180.386C180.653 64.4067 180.87 64.1899 180.87 63.9232C180.87 63.6562 180.653 63.4395 180.386 63.4395H175.916C175.648 63.4395 175.432 63.6562 175.432 63.9232C175.432 64.1899 175.648 64.4067 175.916 64.4067Z" fill="white"/>
<path fill-rule="evenodd" clip-rule="evenodd" d="M197.977 12.3862V62.7806C197.977 65.0767 196.096 66.9543 193.797 66.9543H166.044C165.884 66.9543 165.754 67.0842 165.754 67.2441C165.754 67.4041 165.884 67.5339 166.044 67.5339H193.797C196.415 67.5339 198.557 65.3955 198.557 62.7806V12.3862C198.557 12.2263 198.427 12.0964 198.267 12.0964C198.107 12.0964 197.977 12.2263 197.977 12.3862Z" fill="#4D4D4F"/>
<path fill-rule="evenodd" clip-rule="evenodd" d="M158.325 62.7809V13.3877C158.325 13.2277 158.195 13.0979 158.034 13.0979C157.874 13.0979 157.744 13.2277 157.744 13.3877V62.7806C157.744 62.9405 157.874 63.0704 158.034 63.0704C158.195 63.0708 158.325 62.9409 158.325 62.7809Z" fill="#4D4D4F"/>
<path fill-rule="evenodd" clip-rule="evenodd" d="M158.325 19.0806V4.75306C158.325 2.45775 160.206 0.57938 162.505 0.57938L193.795 0.578993C196.094 0.578993 197.975 2.45736 197.975 4.75267V19.7564C197.975 19.9164 198.105 20.0462 198.265 20.0462C198.426 20.0462 198.556 19.9164 198.556 19.7564V4.75306C198.556 2.13895 196.413 -0.000244141 193.795 -0.000244141L162.505 0.000142358C159.887 0.000142358 157.744 2.13895 157.744 4.75345V19.081C157.744 19.241 157.874 19.3708 158.034 19.3708C158.195 19.3708 158.325 19.2406 158.325 19.0806Z" fill="#4D4D4F"/>
<path d="M231.544 20.8825V22.9784H193.77V20.8825C193.77 18.5775 195.659 16.6914 197.967 16.6914H227.346C229.655 16.6914 231.544 18.5775 231.544 20.8825Z" fill="#4D4D4F"/>
<path fill-rule="evenodd" clip-rule="evenodd" d="M207.204 20.5378H212.235C212.502 20.5378 212.719 20.3214 212.719 20.0548C212.719 19.7882 212.502 19.5718 212.235 19.5718H207.204C206.937 19.5718 206.721 19.7882 206.721 20.0548C206.721 20.3214 206.938 20.5378 207.204 20.5378Z" fill="white"/>
<path fill-rule="evenodd" clip-rule="evenodd" d="M215.718 20.5376H217.072C217.339 20.5376 217.556 20.3212 217.556 20.0546C217.556 19.7879 217.339 19.5715 217.072 19.5715H215.718C215.451 19.5715 215.234 19.7879 215.234 20.0546C215.234 20.3212 215.451 20.5376 215.718 20.5376Z" fill="white"/>
<path d="M231.869 19.7523V21.9843H191.638V19.7523C191.638 17.2974 193.65 15.2888 196.108 15.2888H227.398C229.857 15.2888 231.869 17.2974 231.869 19.7523Z" fill="#5D04D9"/>
<path fill-rule="evenodd" clip-rule="evenodd" d="M206.462 19.2117H211.788C212.056 19.2117 212.272 18.9953 212.272 18.7283C212.272 18.4613 212.056 18.2449 211.788 18.2449H206.462C206.195 18.2449 205.978 18.4617 205.978 18.7283C205.978 18.9949 206.195 19.2117 206.462 19.2117Z" fill="white"/>
<path fill-rule="evenodd" clip-rule="evenodd" d="M215.499 19.2117H216.467C216.735 19.2117 216.951 18.9953 216.951 18.7283C216.951 18.4613 216.735 18.2449 216.467 18.2449H215.499C215.231 18.2449 215.015 18.4617 215.015 18.7283C215.015 18.9949 215.231 19.2117 215.499 19.2117Z" fill="white"/>
<path d="M231.544 20.8832V75.369C231.544 77.6748 229.655 79.5601 227.347 79.5601H197.967C195.659 79.5601 193.77 77.6744 193.77 75.369V20.8832C193.77 18.5782 195.659 16.6921 197.967 16.6921H227.347C229.655 16.6921 231.544 18.5782 231.544 20.8832Z" fill="white"/>
<path d="M231.544 73.2729V75.3689C231.544 77.6746 229.655 79.5599 227.347 79.5599H197.967C196.272 79.5599 194.803 78.5441 194.143 77.0919C193.901 76.5633 193.77 75.9813 193.77 75.3685V73.2729H231.544Z" fill="#4D4D4F"/>
<path fill-rule="evenodd" clip-rule="evenodd" d="M210.56 76.9228H214.756C215.023 76.9228 215.24 76.7064 215.24 76.4398C215.24 76.1732 215.023 75.9568 214.756 75.9568H210.56C210.293 75.9568 210.076 76.1732 210.076 76.4398C210.076 76.7064 210.293 76.9228 210.56 76.9228Z" fill="white"/>
<path d="M231.868 19.7522V77.7811C231.868 80.2364 229.856 82.2446 227.398 82.2446H196.107C193.649 82.2446 191.637 80.2364 191.637 77.7811V19.7522C191.637 17.2973 193.649 15.2887 196.107 15.2887L227.397 15.2883C229.856 15.2887 231.868 17.2973 231.868 19.7522Z" fill="white"/>
<path d="M231.869 75.5491V77.7814C231.869 80.2367 229.857 82.2449 227.398 82.2449H196.108C194.303 82.2449 192.739 81.1633 192.035 79.6169C191.777 79.0535 191.638 78.4344 191.638 77.7814V75.5491H231.869Z" fill="#5D04D9"/>
<path fill-rule="evenodd" clip-rule="evenodd" d="M209.518 79.4069H213.988C214.256 79.4069 214.473 79.1901 214.473 78.9235C214.473 78.6565 214.256 78.4397 213.988 78.4397H209.518C209.251 78.4397 209.034 78.6565 209.034 78.9235C209.034 79.1901 209.251 79.4069 209.518 79.4069Z" fill="white"/>
<path fill-rule="evenodd" clip-rule="evenodd" d="M231.579 27.3865V77.7809C231.579 80.077 229.698 81.9546 227.399 81.9546H199.647C199.486 81.9546 199.356 82.0844 199.356 82.2444C199.356 82.4044 199.486 82.5342 199.647 82.5342H227.399C230.017 82.5342 232.16 80.3958 232.16 77.7809V27.3865C232.16 27.2265 232.03 27.0967 231.87 27.0967C231.709 27.0967 231.579 27.2265 231.579 27.3865Z" fill="#4D4D4F"/>
<path fill-rule="evenodd" clip-rule="evenodd" d="M191.927 77.7812V28.388C191.927 28.228 191.797 28.0981 191.637 28.0981C191.477 28.0981 191.347 28.228 191.347 28.388V77.7808C191.347 77.9408 191.477 78.0706 191.637 78.0706C191.797 78.071 191.927 77.9412 191.927 77.7812Z" fill="#4D4D4F"/>
<path fill-rule="evenodd" clip-rule="evenodd" d="M191.928 34.0808V19.7533C191.928 17.458 193.809 15.5796 196.107 15.5796L227.398 15.5792C229.697 15.5792 231.578 17.4576 231.578 19.7529V34.7567C231.578 34.9167 231.708 35.0465 231.868 35.0465C232.028 35.0465 232.158 34.9167 232.158 34.7567V19.7533C232.158 17.1392 230.016 15 227.398 15L196.107 15.0004C193.49 15.0004 191.347 17.1392 191.347 19.7537V34.0812C191.347 34.2412 191.477 34.371 191.637 34.371C191.797 34.371 191.928 34.2408 191.928 34.0808Z" fill="#4D4D4F"/>
<path fill-rule="evenodd" clip-rule="evenodd" d="M198.976 56.106H204.351C204.511 56.106 204.641 56.2359 204.641 56.3959C204.641 56.5558 204.511 56.6857 204.351 56.6857H198.686C198.526 56.6857 198.396 56.5558 198.396 56.3959V50.7376C198.396 50.5776 198.526 50.4478 198.686 50.4478C198.846 50.4478 198.976 50.5776 198.976 50.7376V56.106Z" fill="#4D4D4F"/>
<path fill-rule="evenodd" clip-rule="evenodd" d="M226.338 56.106V50.7376C226.338 50.5776 226.468 50.4478 226.628 50.4478C226.789 50.4478 226.919 50.5776 226.919 50.7376V56.3959C226.919 56.5558 226.789 56.6857 226.628 56.6857H220.962C220.802 56.6857 220.672 56.5558 220.672 56.3959C220.672 56.2359 220.802 56.106 220.962 56.106H226.338Z" fill="#4D4D4F"/>
<path fill-rule="evenodd" clip-rule="evenodd" d="M198.978 28.7823V34.1496C198.978 34.3095 198.848 34.4394 198.688 34.4394C198.527 34.4394 198.397 34.3095 198.397 34.1496V28.4924C198.397 28.3325 198.527 28.2026 198.688 28.2026H204.353C204.513 28.2026 204.643 28.3325 204.643 28.4924C204.643 28.6524 204.513 28.7823 204.353 28.7823H198.978Z" fill="#4D4D4F"/>
<path fill-rule="evenodd" clip-rule="evenodd" d="M226.338 28.782H220.962C220.802 28.782 220.672 28.6522 220.672 28.4922C220.672 28.3322 220.802 28.2024 220.962 28.2024H226.628C226.789 28.2024 226.919 28.3322 226.919 28.4922V34.1493C226.919 34.3093 226.789 34.4391 226.628 34.4391C226.468 34.4391 226.338 34.3093 226.338 34.1493V28.782Z" fill="#4D4D4F"/>
<path d="M224.828 30.2915H200.489V54.5951H224.828V30.2915Z" fill="white"/>
<path d="M201.802 31.6038V53.2825H223.512V31.6038H201.802ZM222.811 52.5831H202.503V32.3032H222.811V52.5831ZM209.505 33.7016H203.903V39.2958H209.505V33.7016ZM208.805 38.5967H204.603V34.401H208.805V38.5967ZM208.105 37.8977H205.303V35.1004H208.105V37.8977ZM221.41 33.7016H215.808V39.2958H221.41V33.7016ZM220.71 38.5967H216.508V34.401H220.71V38.5967ZM220.01 37.8977H217.209V35.1004H220.01V37.8977ZM209.505 45.5901H203.903V51.1843H209.505V45.5901ZM208.805 50.4848H204.603V46.2891H208.805V50.4848ZM208.105 49.7858H205.303V46.9885H208.105V49.7858ZM210.906 35.7995H210.205V33.7016H210.906V35.7995ZM210.906 46.2895V46.9885H212.306V47.688H210.906V48.3874H210.205V46.2895H210.906ZM204.603 43.4922H206.004V44.8911H208.105V43.4922H210.205V44.8911H211.606V42.0938H212.306V46.2895H213.007V45.5901H213.707V48.3874H212.306V49.0868H213.707V49.7858H214.407V50.4848H213.006V51.1843H215.107V48.387H215.807V49.0864H216.508V48.387H217.208V49.7854H217.908V50.4845H216.507V51.1839H218.608V49.785H220.008V47.6872H217.908V46.9878H220.008V46.2884H217.908V44.8911H215.807V44.1917H216.507V42.7928H217.908V40.695H216.507V42.0938H214.407V40.695H216.508V39.9956H213.706V42.7928H215.807V43.4922H213.006V41.394H211.605V39.2962H210.905V40.695H209.505V39.9956H207.404V40.695H208.805V41.394H207.404V42.0934H208.805V42.7924H207.404V44.1913H206.704V40.695H204.603V39.9956H203.903V44.1917H204.603L204.603 43.4922ZM215.108 45.5901V46.2895H215.808V45.5901H217.209V47.688H216.509V46.9885H215.808V47.688H214.407V45.5901H215.108ZM209.505 42.7928V41.394H210.906V42.7928H209.505ZM204.603 41.394H206.004V42.0938H204.603V41.394ZM218.609 40.6954H221.41V42.7928H220.71V41.394H219.309V43.4919H220.71V44.8907H221.41V46.9885H220.71V45.5901H219.309V44.1913H218.609V40.6954ZM212.307 38.5971H210.206V37.1983H211.606V33.7016H214.407V34.401H212.307V38.5971ZM212.307 39.2962V38.5971H213.007V35.1004H213.707V35.7999H215.108V37.8977H213.707V38.5971H214.407V39.2962H212.307ZM211.606 49.0868H212.306V50.4848H210.205V49.7858H211.606V49.0868H211.606ZM220.71 49.7858H221.41V51.1846H219.309V50.4852H220.71V49.7858Z" fill="#4D4D4F"/>
<path d="M226.247 36.9595H198.893V38.5353H226.247V36.9595Z" fill="#5D04D9"/>
<path d="M222.736 67.1842C222.736 68.2469 221.865 69.1163 220.801 69.1163H204.427C203.363 69.1163 202.492 68.2469 202.492 67.1842V64.9836C202.492 63.921 203.363 63.0515 204.427 63.0515H220.801C221.865 63.0515 222.736 63.921 222.736 64.9836V67.1842Z" fill="#5D04D9"/>
<path d="M208.028 67.1575C208.001 67.1459 207.978 67.127 207.96 67.1003C207.941 67.074 207.932 67.0458 207.932 67.0157C207.932 66.9763 207.945 66.9427 207.972 66.9137C207.998 66.8851 208.032 66.8708 208.074 66.8708C208.096 66.8708 208.118 66.8754 208.139 66.8847C208.351 66.979 208.578 67.0261 208.82 67.0261C209.224 67.0261 209.425 66.8936 209.425 66.6289C209.425 66.5597 209.399 66.5025 209.347 66.4566C209.295 66.4106 209.231 66.3743 209.156 66.348C209.079 66.3213 208.972 66.2896 208.831 66.2533C208.644 66.2046 208.494 66.1583 208.378 66.1134C208.263 66.0686 208.164 66.001 208.081 65.9113C207.998 65.8217 207.956 65.7023 207.956 65.5524C207.956 65.4214 207.991 65.3023 208.06 65.1953C208.129 65.0883 208.232 65.0033 208.367 64.9399C208.501 64.8765 208.663 64.8452 208.852 64.8452C209.106 64.8452 209.335 64.8831 209.54 64.9588C209.604 64.982 209.637 65.0276 209.637 65.0968C209.637 65.1335 209.624 65.1671 209.599 65.1969C209.574 65.227 209.54 65.2417 209.499 65.2417C209.485 65.2417 209.466 65.237 209.444 65.2282C209.264 65.1659 209.078 65.1346 208.887 65.1346C208.705 65.1346 208.557 65.1694 208.443 65.2382C208.329 65.3074 208.272 65.404 208.272 65.528C208.272 65.6107 208.299 65.6783 208.353 65.7301C208.407 65.7819 208.475 65.8221 208.557 65.8507C208.639 65.8793 208.75 65.9102 208.891 65.9422C209.073 65.9859 209.22 66.0296 209.332 66.0732C209.443 66.1169 209.539 66.1849 209.618 66.2769C209.698 66.3688 209.737 66.4929 209.737 66.6498C209.737 66.7788 209.7 66.894 209.627 66.9964C209.553 67.0988 209.449 67.1788 209.316 67.2363C209.182 67.2939 209.028 67.3225 208.853 67.3225C208.559 67.3233 208.285 67.268 208.028 67.1575Z" fill="white"/>
<path d="M210.661 67.1729C210.479 67.0724 210.334 66.9291 210.23 66.7416C210.125 66.5538 210.072 66.3351 210.072 66.0843C210.072 65.8336 210.125 65.6145 210.23 65.4267C210.335 65.2389 210.479 65.0955 210.661 64.995C210.844 64.8953 211.051 64.8447 211.282 64.8447C211.439 64.8447 211.578 64.8629 211.702 64.9C211.825 64.9367 211.948 64.9896 212.07 65.0584C212.12 65.0862 212.146 65.1299 212.146 65.1898C212.146 65.2242 212.133 65.2551 212.108 65.2814C212.083 65.3077 212.049 65.3208 212.008 65.3208C211.985 65.3208 211.964 65.3162 211.946 65.3069C211.845 65.2543 211.745 65.2138 211.649 65.1863C211.552 65.1589 211.44 65.1446 211.313 65.1446C211.116 65.1446 210.946 65.1859 210.807 65.2675C210.668 65.349 210.563 65.4603 210.492 65.6021C210.422 65.7431 210.387 65.9043 210.387 66.0836C210.387 66.2629 210.422 66.4232 210.492 66.5647C210.563 66.7061 210.667 66.8178 210.807 66.8993C210.946 66.9808 211.115 67.0218 211.313 67.0218C211.44 67.0218 211.552 67.0079 211.649 66.9804C211.745 66.9526 211.845 66.9124 211.946 66.8599C211.965 66.851 211.985 66.846 212.008 66.846C212.05 66.846 212.083 66.8583 212.108 66.8838C212.134 66.9093 212.146 66.9403 212.146 66.977C212.146 67.0369 212.12 67.0801 212.07 67.108C211.948 67.1767 211.825 67.2301 211.702 67.2668C211.578 67.3035 211.439 67.322 211.282 67.322C211.051 67.3228 210.845 67.273 210.661 67.1729Z" fill="white"/>
<path d="M212.498 67.2608C212.47 67.231 212.455 67.1939 212.455 67.1507C212.455 67.1321 212.461 67.1093 212.472 67.0815L213.354 65.0041C213.372 64.9624 213.398 64.9288 213.431 64.9025C213.465 64.8758 213.506 64.8623 213.554 64.8623H213.588C213.637 64.8623 213.678 64.8754 213.712 64.9025C213.745 64.9288 213.771 64.9628 213.789 65.0041L214.67 67.0815C214.682 67.1093 214.687 67.1321 214.687 67.1507C214.687 67.1939 214.673 67.231 214.645 67.2608C214.616 67.2909 214.578 67.306 214.532 67.306C214.5 67.306 214.471 67.2975 214.444 67.2797C214.417 67.2627 214.398 67.2391 214.384 67.209L214.16 66.6707H212.984L212.76 67.209C212.746 67.2391 212.726 67.2623 212.699 67.2797C212.673 67.2971 212.644 67.306 212.611 67.306C212.565 67.3056 212.527 67.2905 212.498 67.2608ZM213.105 66.3844H214.038L213.571 65.2626L213.105 66.3844Z" fill="white"/>
<path d="M215.241 67.2604C215.211 67.2307 215.195 67.1936 215.195 67.1503V65.0899C215.195 65.0277 215.217 64.9744 215.261 64.9292C215.305 64.8844 215.358 64.862 215.42 64.862H215.465C215.539 64.862 215.602 64.8963 215.655 64.9655L216.986 66.884V65.0208C216.986 64.9767 217.001 64.9396 217.03 64.9083C217.06 64.8774 217.097 64.8616 217.141 64.8616C217.184 64.8616 217.222 64.8774 217.253 64.9083C217.284 64.9392 217.3 64.9767 217.3 65.0208V67.0807C217.3 67.1429 217.277 67.1959 217.232 67.2395C217.187 67.2832 217.134 67.3049 217.072 67.3049H217.03C216.994 67.3049 216.959 67.296 216.927 67.2786C216.894 67.2616 216.868 67.2392 216.847 67.2113L215.51 65.2824V67.1495C215.51 67.1928 215.494 67.2299 215.462 67.2596C215.431 67.2898 215.394 67.3049 215.35 67.3049C215.308 67.3052 215.27 67.2902 215.241 67.2604Z" fill="white"/>
<defs>
<clipPath id="clip0">
<rect width="86.1646" height="60.5481" fill="white" transform="translate(7 -0.000244141)"/>
</clipPath>
<clipPath id="clip1">
<rect width="26" height="8" fill="white" transform="translate(37.5293 24.9998)"/>
</clipPath>
<clipPath id="clip2">
<rect width="26" height="8" fill="white" transform="translate(165.529 26.3286)"/>
</clipPath>
</defs>
</svg>
