<?xml version="1.0" encoding="utf-8"?>
<!-- Generator: Adobe Illustrator 25.2.1, SVG Export Plug-In . SVG Version: 6.00 Build 0)  -->
<svg version="1.1" id="Layer_1" xmlns="http://www.w3.org/2000/svg" xmlns:xlink="http://www.w3.org/1999/xlink" x="0px" y="0px"
	 viewBox="0 0 1400 768" style="enable-background:new 0 0 1400 768;" xml:space="preserve">
<style type="text/css">
	.st0{clip-path:url(#SVGID_2_);}
	.st1{opacity:0.6;fill:none;stroke:#B39EF5;stroke-width:1.5;stroke-miterlimit:10;}
	.st2{fill:#DF5751;}
	.st3{fill:#FFFFFF;}
	.st4{fill:none;stroke:#4722E9;stroke-width:1.5;stroke-linecap:round;stroke-linejoin:round;}
	.st5{fill:#55BC9F;}
	.st6{fill:#B39EF5;}
	.st7{fill:none;stroke:#4722E9;stroke-width:1.5;stroke-miterlimit:10;}
</style>
<g>
	<defs>
		<rect id="SVGID_1_" width="1400" height="768"/>
	</defs>
	<clipPath id="SVGID_2_">
		<use xlink:href="#SVGID_1_"  style="overflow:visible;"/>
	</clipPath>
	<g class="st0">
		<path class="st1" d="M249.9,449c13.2-0.2,26.1,3.7,37,11c2,1.6,4.3,2.7,6.8,3.4c2.5,0.6,5,0.8,7.6,0.4c5.1-0.5,9.7-3,13-6.9
			c1.6-1.8,2.8-4,3.5-6.3c0.7-2.3,0.8-4.8,0.4-7.2c-0.3-2.4-1.1-4.8-2.4-6.9c-1.3-2.1-3-3.9-5-5.3c-17.3-12.4-38-19-59.2-18.9
			c-25.8,0.2-48,8.7-66.7,25.4c-18.6,16.7-27.9,36.8-27.8,60.3c0,23.5,9.3,43.7,27.9,60.5c18.6,16.8,40.8,25.2,66.7,25.2
			c21.1,0,40.8-6.1,59.2-18.2c4-3.1,6.7-7.6,7.4-12.5c0.4-2.4,0.2-4.8-0.4-7c-0.7-2.3-1.9-4.4-3.5-6.2c-3.4-3.9-8.1-6.3-13.2-6.8
			c-2.5-0.4-5-0.3-7.4,0.3c-2.4,0.6-4.7,1.6-6.7,3.1c-11,7.4-24,11.2-37.2,11c-13.9,0-26.3-4.9-37-14.6s-16.2-21.2-16.2-34.5
			c0-13.3,5.5-24.8,16.4-34.6C223.8,453.9,236.2,449,249.9,449z"/>
		<path class="st1" d="M465,421.3c-24.6,0-45.6,8.5-63.1,25.5c-17.5,17-26.2,37.3-26.2,60.9c0,23.5,8.7,43.8,26.1,60.7
			c17.4,16.9,38.6,25.4,63.7,25.4c24.6,0,45-8.3,61.2-25c0.6-0.7,1.3-1.3,2-2c16.7-15.4,25-34.7,25-58c0-23.8-8.6-44.3-25.9-61.5
			C510.4,429.9,489.5,421.3,465,421.3z M513.8,513.7c-1.3,10.9-6.2,21-14,28.7c-7.8,7.7-18,12.5-28.9,13.6c-2.1,0.2-4.2,0.3-6.3,0.3
			h-0.4c-12.4-0.1-24.3-5-33.2-13.6c-8.9-8.6-14.2-20.3-14.7-32.7c0-0.9-0.1-1.8-0.1-2.6s0-1.5,0-2.3c0.5-12.1,5.5-23.6,14-32.2
			c8.6-8.6,20-13.6,32.1-14.2c0.7,0,1.5,0,2.2,0c2.8,0,5.7,0.2,8.5,0.7c22.9,3.7,40.3,22.9,41,46c0,0.7,0,1.3,0,2
			C514.1,509.5,514,511.6,513.8,513.7L513.8,513.7z"/>
		<path class="st1" d="M691.8,418.3c-24.6,0-45.6,8.5-63.1,25.5c-17.5,17-26.2,37.3-26.2,60.9c0,23.5,8.7,43.8,26.1,60.7
			c17.4,16.9,38.6,25.4,63.7,25.4s45.8-8.7,62.2-26.1c17.4-15.5,26.1-35.2,26.1-59s-8.6-44.3-25.9-61.6
			C737.3,426.9,716.4,418.3,691.8,418.3z M726.5,540.7c-9.7,8.5-21.3,12.7-35,12.7s-25.3-4.2-35-12.7c-9-10.1-13.5-22.2-13.5-36.3
			c0-14.2,4.5-26.1,13.4-35.7c10.7-8.7,22.3-13,35-13c12.7,0,24.3,4.3,35,13c9.7,9.6,14.6,21.5,14.6,35.7c0.1,6.7-1.1,13.4-3.6,19.6
			C734.9,530.2,731.2,535.9,726.5,540.7L726.5,540.7z"/>
		<path class="st1" d="M918.7,421.3c-17.3-0.4-34.3,4.5-48.8,14v-56.4c0-10.3-9.1-18.7-20.3-18.7c-11.2,0-20.3,8.4-20.3,18.7v133
			c0,1.1,0.1,2.1,0.3,3.1c1.6,20.4,10.2,38.2,25.8,53.4c17.4,16.9,38.6,25.4,63.7,25.4s45.8-8.7,62.2-26.1
			c17.4-15.5,26.1-35.2,26.1-59s-8.6-44.3-25.9-61.6C964.2,429.9,943.2,421.5,918.7,421.3z M953.3,543.7c-9.7,8.5-21.3,12.7-35,12.7
			s-25.3-4.2-35-12.7c-8.9-10.1-13.4-22.2-13.4-36.3c0-14.2,4.5-26.1,13.4-35.7c10.7-8.7,22.3-13,35-13s24.3,4.3,35,13
			c9.7,9.6,14.5,21.5,14.5,35.7c0.1,6.7-1.1,13.4-3.6,19.6C961.7,533.2,958,538.9,953.3,543.7L953.3,543.7z"/>
		<path class="st1" d="M1217,417.6c-3.9-3.5-8.9-5.4-14.2-5.3c-5.1-0.1-10,1.7-13.8,5.1c-1.8,1.6-3.2,3.6-4.2,5.9
			c-1,2.2-1.4,4.7-1.4,7.1v80.9c0.1,4.7-0.9,9.4-2.8,13.7c-1.9,4.3-4.8,8.1-8.3,11.2c-7.4,6.8-16.5,10.1-27.2,10.1
			c-10.7,0-19.8-3.4-27.4-10.1c-7.6-6.7-11.4-15-11.4-24.9v-80.9c0.1-2.4-0.4-4.9-1.4-7.1c-1-2.2-2.4-4.3-4.2-5.9
			c-3.8-3.4-8.7-5.3-13.8-5.1c-5.2-0.1-10.2,1.8-14,5.3c-1.8,1.6-3.3,3.6-4.3,5.8c-1,2.2-1.5,4.6-1.5,7.1v80.9
			c0,19.7,7.6,36.6,22.9,50.8c15.3,14.2,33.6,21.3,54.9,21.3c13.2,0,25-2.7,35.4-8.2c-3,8.9-8.8,16.3-17.3,22.1
			c-8.6,5.8-17.3,8.8-26.2,8.9c-8.9,0.1-16.4-1.2-22.3-4c-6-2.7-11.6-3.3-16.9-1.7c-5.3,1.6-9.2,4.5-11.7,8.6
			c-1.1,2.2-1.7,4.6-1.9,7c-0.1,2.4,0.2,4.9,1.1,7.2c1.7,4.7,5.2,8,10.4,10.1c12,5.6,25.1,8.5,38.3,8.6c24.8,0,45.9-7.9,63.1-23.8
			c17.3-15.9,25.9-35.3,25.9-58.1V430.4c0-2.5-0.5-4.9-1.6-7.1C1220.4,421.1,1218.9,419.1,1217,417.6L1217,417.6z"/>
		<path class="st2" d="M431.3,692.3c33.8-3.8,60.6-12.1,59.9-18.6c-0.7-6.5-28.7-8.7-62.5-5c-33.8,3.8-60.6,12.1-59.9,18.6
			C369.5,693.9,397.5,696.1,431.3,692.3z"/>
		<path class="st3" d="M527.8,962l-54.2-319.8c-4.4,4.1-18,14.3-45.1,14.5c0,0-25.9,1-45.3-10.2L376.6,962H527.8z"/>
		<path class="st3" d="M486.6,528.2c-0.3-0.2-0.6-0.4-0.8-0.6c-0.2-0.3-0.4-0.6-0.5-0.9c-5.4-18.6-20.4-10.1-20.4-10.1
			c-3.4,2.9-7.1,0.4-7.1,0.4c-5.9-5.4-18.5-4.9-18.5-4.9c-7.6,0.1-13,7.6-13,7.6c-4.3,7.6-15.3,0.3-15.3,0.3c-5.5-5-13-2.4-13-2.4
			c-8.1,2.7-13.8,10.1-13.8,10.1c-4.6,5.2-12.5,1.3-12.5,1.3c-7-2.2-12.6,3.6-12.6,3.6c-3.3,2.6-6.5,12.9-7.3,15.7
			c-0.1,0.5-0.2,1-0.3,1.4c-5.7,42.3,13.5,68.9,13.5,68.9c13.1,20.1,18,22.7,18,22.7c19.5,11.2,45.3,10.2,45.3,10.2
			c27-0.2,40.7-10.4,45.1-14.5c0.6-0.5,1.1-1.1,1.7-1.7c19.6-17.8,24.6-71,24.6-71C503.5,534.7,486.6,528.2,486.6,528.2z"/>
		<path class="st4" d="M486,525c0,0,0,16-6,29"/>
		<path class="st5" d="M370.5,688.7c0,0,67.3,16.3,123.2-12.4L536,947.1l-188.5,20.5L370.5,688.7z"/>
		<path class="st2" d="M718.1,625.5c30.2-8.3,53.3-20.1,51.6-26.4c-1.7-6.3-27.6-4.8-57.8,3.5c-30.2,8.3-53.3,20.1-51.6,26.4
			C662,635.3,687.9,633.7,718.1,625.5z"/>
		<path class="st6" d="M672.4,465c0,0-1-25.1,4.7-29c0,0,3.9-5,12.7,2.1c0,0,8.1,7.9,10.4,10.5l5.2,12.8l-5.3,6.7l-14.7,3.7
			l-11.3-1.2L672.4,465z"/>
		<path class="st3" d="M825.6,850.8l-85.8-283.7h-0.1c-8.7,5.7-18.7,9.1-29,10.2c0,0-23.7,3.1-37.4-1.6l18.5,292.9L825.6,850.8z"/>
		<path class="st3" d="M739.5,470.1c-1.5-1-6.8-8.6-6.8-8.6c-1.1-2.7-8.2-18.9-8.2-18.9c-2.4-6.4-7.6-6-7.6-6
			c-4.1-0.1-8.1,0.6-11.8,2.2c-7.6,2.4-4.8,18.5-4.8,18.5c0.1,0.9-0.6,0.4-0.6,0.4l-2.1-2.2c-4.5-4.3-11.3-2.5-11.3-2.5
			c-7.6,2.1-10.5,12.3-10.5,12.3c-0.4,1.2-0.9,0.6-0.9,0.6l-4.1-1.6c-5.2-2.4-11.6,0.9-11.6,0.9c-4.4,2-7.7,6.9-7.7,6.9
			c-0.3,1.3-2.1,1-2.1,1c-5.2-2.5-12.7-1.1-12.7-1.1c-14.4,3.9-11.3,20.3-11.3,20.3c5.8,36.2,16.6,55.2,16.6,55.2
			c5.9,11.3,27.6,22.6,27.6,22.6c0.6,0.2,1.2,0.5,1.8,0.7c13.7,4.8,37.4,1.9,37.4,1.9c10.3-1,20.3-4.4,29-10c1.5-1,2.3-1.7,2.3-1.7
			l9.2-21.1C767,498.8,739.5,470.1,739.5,470.1z"/>
		<path class="st7" d="M649,471c0,0,4,5,4,11"/>
		<path class="st7" d="M675,465l4,16"/>
		<path class="st7" d="M699.5,455.5l6,22"/>
		<path class="st6" d="M659.8,628c0,0,63.4,7.2,110-28.5l77.5,262.3l-168,45.2L659.8,628z"/>
		<path class="st2" d="M1261.8,694.2c30.7-6.2,54.5-16.4,53.2-22.9c-1.3-6.4-27.2-6.6-58-0.4c-30.7,6.2-54.5,16.4-53.2,22.9
			C1205.2,700.2,1231.1,700.4,1261.8,694.2z"/>
		<path class="st3" d="M1355.4,899.8l-62.3-258.1c-3.5,4.4-15,16.3-36.6,16.1c0,0-22.5,0.2-37.2-8.9l-7.9,259.9L1355.4,899.8z"/>
		<path class="st3" d="M1307.8,557.3c-7.3-16.2-12.5-13.9-12.5-13.9c-5.7,0-8.2,5.6-8.2,5.6c-0.7,1.1-1.2,0.2-1.2,0.2
			c-0.4-6.8-20.8-64.5-20.8-64.5c-0.2-0.9-0.8-1.8-1.7-2.3s-1.8-0.7-2.8-0.5c-3.8,1.2-5.6,6-5.6,6c-2.3,4.3-12.5,55-12.5,55
			c-0.8,4.3-4,4.3-4,4.3c-2.1-0.3-4.3-4.2-4.3-4.2l-27.2-46.2c-5.6-8.9-9.9-5.7-9.9-5.7c-3.7,1.8-2.9,6-2.9,6l4.7,31.8
			c1.5,6.7-0.5,6-0.5,6c-6.4-0.5-9,1.7-9,1.7c-5.4,3-4.1,12.1-4.1,12.1c0.1,0.7,0.1,1.3,0,2l-0.4,0.2c-14,1.5-10.2,20.6-10.2,20.6
			c5.4,40.2,43.7,72.5,43.7,72.5c14.7,9.1,37.2,8.9,37.2,8.9c21.7,0.2,33.2-11.7,36.6-16.1c0.8-1,1.2-1.5,1.2-1.5l9.2-18.2
			C1318.1,582.2,1307.8,557.3,1307.8,557.3z"/>
		<path class="st4" d="M1184,548l5,19"/>
		<path class="st4" d="M1198,532l7,26"/>
		<path class="st4" d="M1284,531l4.5,36.5"/>
		<path class="st5" d="M1203.5,692.7c0,0,62.7,11.5,111.6-21.1l59.7,266.9l-170.7,33.8L1203.5,692.7z"/>
		<path class="st5" d="M207.1,645.5c1-6.5-23.3-15.6-54.2-20.4S96,621.7,95,628.2c-1,6.5,23.3,15.6,54.2,20.4
			C180.2,653.4,206.1,652,207.1,645.5z"/>
		<path class="st3" d="M138.9,617.2c0,0-15.9-7.2-23.9-18.2l-2.1,6.8l-88.8,285l139.5,26.4L198,618.6C198,618.6,163,629,138.9,617.2
			z"/>
		<path class="st2" d="M95,627.2c0,0,54.9,32.4,112,18.8L170.9,917L-1,889.8L95,627.2z"/>
		<path class="st3" d="M138.1,486.4c0,0,12.5-7.2,21.6-3.8c0,0,27.3-12,49.4,2.9c0,0,7.7,5.3,1.4,9.1c0,0-2.4,1.4-7.7,0.5
			c0,0-4.3-1-11.5,1c0,0-10.1,1.9-16.3,9.6c0,0-7.7,9.1-7.2,19.7c0,0,0.5,15.3,12.5,20.6c0,0,9.1,4.3,17.8,3.8c0,0,14.4-1.4,19.7-12
			c0.3-0.9,0.9-1.6,1.7-2.1c0.8-0.5,1.7-0.8,2.6-0.8c0,0,5.3,0,6.2,8.2c0,0,4.3,16.3-2.4,38.4c0,0-5.3,15.8-17.7,24.5
			c0,0-11.5,8.6-21.1,11c0,0-14.9,5.8-38.8-1.4c-8.6-2.6-16.5-6.8-23.5-12.5c0,0-18.2-13.9-27.3-41.2c0,0-5.8-13.9,2.4-37.9
			c0,0,6.7-23,27.3-35C127.1,488.8,133.3,485.9,138.1,486.4z"/>
		<path class="st4" d="M161.5,481.5c0,0-20.7,3.7-33.7,33.4"/>
		<path class="st4" d="M138.5,485.5c0,0-18.1,13.4-23.4,27.7"/>
		<path class="st5" d="M1015.5,674.3c32-4.9,57.1-14.1,56.1-20.6c-1-6.5-27.7-7.8-59.7-2.9c-32,4.9-57.1,14.1-56.1,20.6
			C956.8,678,983.5,679.2,1015.5,674.3z"/>
		<path class="st3" d="M962,911.8l144-9L1051.6,622l-1.4,2c-1.2,1.5-2.5,2.9-4,4.3l-4.1,4.9c0,0-16.6,21-64.1,7.2
			c-2.5-0.9-4.9-2.3-7-3.9v5.3L962,911.8z"/>
		<path class="st2" d="M955.4,670.5c0,0,64.3,14.1,116.2-16.4l50.1,269.2L944,949.9L955.4,670.5z"/>
		<path class="st3" d="M936.1,525.4l-1.7-40.8c0,0-1.3-10.6,4-10.6c0,0,0-6.6,2-9.3c0,0,1.3-2.7,4-2.7c0,0-0.7-7.3,2.7-8.6
			c0,0,5.3-2.6,9.3,4.6c0,0,15.9,33.8,20.6,52.4c0,0,1.3,4,3.3,4c0,0,3.3,0.7,6-4.6c0,0,6.6-17.9,33.8-15.2c5.8,1,11.4,3.4,16.1,7
			c4.7,3.6,8.5,8.2,11.1,13.6c0,0,4.7,11.3-0.7,13.9c0,0-1.3,0.7-4-1.3c-2.7-2-4.6-6-11.9-8.6c0,0-9.3-4.6-21.2,2.7
			c0,0-14.6,7.3-13.9,20.6c0,0,0,19.2,21.9,19.9c0,0,17.2,2.7,22.6-21.2c0,0,0.7-11.3,5.3-11.3c0,0,10-1.3,11.9,17.9
			c0,0,7.3,39.1-6,65.7c0,0-10,23.2-37.1,26.5c0,0-36.5,7.3-62.3-26.5c0,0-17.9-19.2-15.9-61C935.8,552.3,937.1,537,936.1,525.4z"/>
		<path class="st4" d="M944.4,461.1l4.7,54.7"/>
		<path class="st4" d="M938.4,473.2l2.7,43.2"/>
	</g>
</g>
</svg>
