<svg width="1400" height="768" viewBox="0 0 1400 768" fill="none" xmlns="http://www.w3.org/2000/svg">
<g clip-path="url(#clip0)">
<path d="M249.91 449C263.071 448.844 275.972 452.679 286.91 460C288.919 461.565 291.225 462.706 293.689 463.354C296.152 464.002 298.721 464.143 301.24 463.77C306.29 463.225 310.94 460.771 314.24 456.91C315.865 455.091 317.06 452.929 317.737 450.585C318.414 448.242 318.555 445.776 318.15 443.37C317.842 440.929 317.018 438.582 315.734 436.484C314.45 434.385 312.734 432.584 310.7 431.2C293.447 418.826 272.722 412.224 251.49 412.34C225.67 412.573 203.453 421.03 184.84 437.71C166.227 454.39 156.947 474.487 157 498C157 521.547 166.31 541.72 184.93 558.52C203.55 575.32 225.767 583.723 251.58 583.73C272.68 583.73 292.417 577.67 310.79 565.55C314.799 562.484 317.468 557.987 318.24 553C318.628 550.647 318.478 548.237 317.8 545.951C317.123 543.665 315.937 541.562 314.33 539.8C310.956 535.925 306.224 533.492 301.11 533C298.651 532.601 296.137 532.696 293.715 533.278C291.292 533.86 289.01 534.918 287 536.39C275.987 543.744 263.001 547.58 249.76 547.39C235.853 547.39 223.503 542.533 212.71 532.82C201.917 523.107 196.517 511.62 196.51 498.36C196.51 485.1 201.973 473.553 212.9 463.72C223.827 453.887 236.163 448.98 249.91 449Z" stroke="#B39EF5" stroke-width="1.5" stroke-miterlimit="10"/>
<path d="M465 421.26C440.42 421.26 419.38 429.773 401.88 446.8C384.38 463.827 375.63 484.117 375.63 507.67C375.63 531.21 384.317 551.44 401.69 568.36C419.063 585.28 440.29 593.74 465.37 593.74C489.95 593.74 510.353 585.407 526.58 568.74C527.23 568.07 527.91 567.41 528.58 566.74C545.247 551.347 553.58 532.013 553.58 508.74C553.58 484.96 544.953 464.443 527.7 447.19C510.447 429.937 489.547 421.293 465 421.26ZM513.81 513.68C512.548 524.564 507.61 534.69 499.811 542.386C492.012 550.081 481.819 554.884 470.92 556C468.813 556.214 466.697 556.321 464.58 556.32H464.17C451.768 556.206 439.882 551.339 430.962 542.721C422.043 534.103 416.77 522.391 416.23 510C416.23 509.13 416.18 508.25 416.18 507.37C416.18 506.49 416.18 505.82 416.18 505.05C416.653 492.943 421.664 481.457 430.215 472.874C438.767 464.29 450.235 459.238 462.34 458.72C463.07 458.72 463.81 458.67 464.54 458.67C467.384 458.669 470.223 458.896 473.03 459.35C495.88 463.05 513.28 482.24 514.03 505.35C514.03 506.01 514.03 506.67 514.03 507.35C514.055 509.463 513.968 511.576 513.77 513.68H513.81Z" stroke="#B39EF5" stroke-width="1.5" stroke-miterlimit="10"/>
<path d="M691.82 418.26C667.24 418.26 646.2 426.773 628.7 443.8C611.2 460.827 602.45 481.117 602.45 504.67C602.45 528.21 611.14 548.44 628.52 565.36C645.9 582.28 667.123 590.74 692.19 590.74C717.257 590.74 737.987 582.05 754.38 564.67C771.747 549.13 780.433 529.463 780.44 505.67C780.447 481.877 771.82 461.36 754.56 444.12C737.313 426.88 716.4 418.26 691.82 418.26ZM726.45 540.67C716.77 549.13 705.103 553.36 691.45 553.36C677.797 553.36 666.13 549.13 656.45 540.67C647.483 530.61 643 518.497 643 504.33C643 490.163 647.467 478.273 656.4 468.66C667.067 459.993 678.733 455.66 691.4 455.66C704.067 455.66 715.733 459.993 726.4 468.66C736.133 478.26 741 490.15 741 504.33C741.114 511.051 739.886 517.726 737.388 523.966C734.889 530.207 731.171 535.885 726.45 540.67V540.67Z" stroke="#B39EF5" stroke-width="1.5" stroke-miterlimit="10"/>
<path d="M918.68 421.26C901.381 420.907 884.379 425.787 869.9 435.26V378.83C869.9 368.56 860.77 360.15 849.61 360.15C838.45 360.15 829.31 368.56 829.31 378.83V511.83C829.316 512.881 829.42 513.929 829.62 514.96C831.26 535.407 839.847 553.203 855.38 568.35C872.747 585.27 893.97 593.73 919.05 593.73C944.13 593.73 964.86 585.04 981.24 567.66C998.613 552.12 1007.3 532.453 1007.31 508.66C1007.32 484.867 998.69 464.35 981.43 447.11C964.17 429.89 943.16 421.5 918.68 421.26ZM953.31 543.67C943.63 552.13 931.963 556.36 918.31 556.36C904.657 556.36 892.99 552.13 883.31 543.67C874.37 533.61 869.9 521.497 869.9 507.33C869.9 493.163 874.37 481.273 883.31 471.66C893.977 462.993 905.643 458.66 918.31 458.66C930.977 458.66 942.643 462.993 953.31 471.66C963.003 481.26 967.847 493.15 967.84 507.33C967.959 514.049 966.734 520.725 964.239 526.965C961.744 533.205 958.029 538.885 953.31 543.67V543.67Z" stroke="#B39EF5" stroke-width="1.5" stroke-miterlimit="10"/>
<path d="M1217 417.57C1213.13 414.068 1208.07 412.169 1202.85 412.26C1197.76 412.119 1192.82 413.962 1189.07 417.4C1187.26 419.039 1185.83 421.049 1184.86 423.292C1183.9 425.535 1183.43 427.96 1183.49 430.4V511.32C1183.56 516.028 1182.59 520.694 1180.66 524.99C1178.73 529.285 1175.89 533.105 1172.32 536.18C1164.87 542.933 1155.81 546.307 1145.13 546.3C1134.45 546.293 1125.33 542.92 1117.77 536.18C1110.19 529.44 1106.4 521.153 1106.41 511.32V430.43C1106.47 427.988 1106 425.562 1105.04 423.318C1104.07 421.074 1102.63 419.065 1100.82 417.43C1097.07 413.99 1092.13 412.147 1087.04 412.29C1081.86 412.168 1076.84 414.073 1073.04 417.6C1071.21 419.2 1069.74 421.178 1068.75 423.398C1067.75 425.618 1067.25 428.027 1067.27 430.46V511.38C1067.27 531.047 1074.9 547.963 1090.17 562.13C1105.44 576.297 1123.74 583.383 1145.09 583.39C1158.25 583.39 1170.04 580.647 1180.47 575.16C1177.49 584.08 1171.72 591.453 1163.15 597.28C1154.58 603.107 1145.87 606.07 1137 606.17C1128.07 606.283 1120.63 604.967 1114.66 602.22C1108.69 599.473 1103.05 598.903 1097.72 600.51C1092.39 602.11 1088.48 604.967 1085.99 609.08C1084.89 611.272 1084.26 613.668 1084.13 616.117C1084 618.565 1084.38 621.014 1085.24 623.31C1086.98 627.977 1090.46 631.35 1095.67 633.43C1107.67 639.049 1120.75 641.974 1134 642C1158.82 642 1179.86 634.057 1197.12 618.17C1214.38 602.283 1223.01 582.91 1223 560.05V430.43C1223.01 427.977 1222.47 425.552 1221.44 423.329C1220.4 421.106 1218.89 419.14 1217 417.57V417.57Z" stroke="#B39EF5" stroke-width="1.5" stroke-miterlimit="10"/>
<path d="M999.6 422.33L1001.44 417.8C998.7 424.28 994.92 433.7 993.57 437.08L999.6 422.33Z" fill="#4722E9"/>
<path d="M431.287 690.35C465.071 686.596 491.874 678.283 491.151 671.782C490.429 665.281 462.456 663.054 428.671 666.808C394.887 670.561 368.085 678.875 368.807 685.376C369.529 691.877 397.503 694.104 431.287 690.35Z" fill="#DF5751"/>
<path d="M527.75 960L473.5 640.25C469.07 644.39 455.5 654.59 428.41 654.8C428.41 654.8 402.55 655.8 383.09 644.61L376.61 960H527.75Z" fill="white"/>
<path d="M486.62 528.19C486.301 528.037 486.018 527.816 485.792 527.543C485.566 527.27 485.402 526.952 485.31 526.61C479.89 508.03 464.91 516.5 464.91 516.5C461.5 519.42 457.78 516.92 457.78 516.92C451.87 511.5 439.33 511.99 439.33 511.99C431.71 512.11 426.33 519.55 426.33 519.55C422.03 527.14 410.99 519.83 410.99 519.83C405.47 514.83 397.99 517.43 397.99 517.43C389.9 520.16 384.21 527.49 384.21 527.49C379.56 532.68 371.69 528.75 371.69 528.75C364.69 526.6 359.11 532.38 359.11 532.38C355.83 534.94 352.64 545.24 351.81 548.07C351.672 548.542 351.569 549.023 351.5 549.51C345.77 591.86 365.05 618.43 365.05 618.43C378.11 638.55 383.05 641.16 383.05 641.16C402.51 652.39 428.37 651.34 428.37 651.34C455.37 651.14 469.03 640.94 473.46 636.8C474.046 636.259 474.6 635.685 475.12 635.08C494.71 617.24 499.68 564.08 499.68 564.08C503.5 534.71 486.62 528.19 486.62 528.19Z" fill="white"/>
<path d="M486 525C486 525 486 541 480 554" stroke="#4722E9" stroke-width="1.5" stroke-linecap="round" stroke-linejoin="round"/>
<path d="M370.47 686.7C370.47 686.7 437.73 703 493.66 674.33L536 945.06L347.53 965.52L370.47 686.7Z" fill="#55BC9F"/>
<path d="M718.126 625.455C748.344 617.2 771.44 605.381 769.712 599.057C767.985 592.733 742.087 594.299 711.869 602.554C681.651 610.81 658.555 622.629 660.282 628.952C662.01 635.276 687.907 633.711 718.126 625.455Z" fill="#DF5751"/>
<path d="M672.4 465C672.4 465 671.4 439.89 677.06 435.95C677.06 435.95 680.95 431 689.79 438.06C689.79 438.06 697.92 445.94 700.17 448.58L705.32 461.42L700 468.14L685.34 471.84L674 470.64L672.4 465Z" fill="#B39EF5"/>
<path d="M825.63 850.8L739.81 567.07H739.75C731.033 572.725 721.09 576.216 710.75 577.25C710.75 577.25 687.1 580.39 673.36 575.67L691.89 868.55L825.63 850.8Z" fill="white"/>
<path d="M739.53 470.13C738.02 469.13 732.78 461.55 732.78 461.55C731.68 458.83 724.59 442.68 724.59 442.68C722.19 436.32 717.01 436.68 717.01 436.68C712.953 436.55 708.917 437.305 705.18 438.89C697.54 441.29 700.37 457.36 700.37 457.36C700.47 458.21 699.76 457.74 699.76 457.74L697.68 455.57C693.21 451.28 686.38 453.1 686.38 453.1C678.79 455.25 675.93 465.44 675.93 465.44C675.5 466.68 675.06 466 675.06 466L670.96 464.36C665.77 462 659.37 465.23 659.37 465.23C654.99 467.23 651.65 472.13 651.65 472.13C651.31 473.41 649.53 473.13 649.53 473.13C644.33 470.61 636.84 472.06 636.84 472.06C622.42 475.96 625.52 492.39 625.52 492.39C631.36 528.59 642.09 547.63 642.09 547.63C648 558.89 669.7 570.2 669.7 570.2C670.27 570.45 670.88 570.68 671.5 570.9C685.2 575.72 708.88 572.76 708.88 572.76C719.203 571.773 729.143 568.345 737.88 562.76C739.41 561.76 740.23 561.1 740.23 561.1L749.47 540C767 498.75 739.53 470.13 739.53 470.13Z" fill="white"/>
<path d="M649 471C649 471 653 476 653 482" stroke="#4722E9" stroke-width="1.5" stroke-miterlimit="10"/>
<path d="M675 465L679 481" stroke="#4722E9" stroke-width="1.5" stroke-miterlimit="10"/>
<path d="M699.5 455.5L705.5 477.5" stroke="#4722E9" stroke-width="1.5" stroke-miterlimit="10"/>
<path d="M659.85 628C659.85 628 723.21 635.24 769.85 599.47L847.33 861.76L679.33 906.94L659.85 628Z" fill="#B39EF5"/>
<path d="M1260.81 693.157C1291.52 686.95 1315.35 676.708 1314.06 670.283C1312.76 663.857 1286.81 663.68 1256.11 669.888C1225.4 676.096 1201.57 686.337 1202.87 692.763C1204.16 699.189 1230.11 699.365 1260.81 693.157Z" fill="#DF5751"/>
<path d="M1354.45 898.78L1292.15 640.67C1288.69 645.02 1277.15 656.96 1255.51 656.76C1255.51 656.76 1233 657 1218.35 647.9L1210.45 907.78L1354.45 898.78Z" fill="white"/>
<path d="M1307.82 557.27C1300.48 541.1 1295.31 543.38 1295.31 543.38C1289.61 543.38 1287.13 548.94 1287.13 548.94C1286.44 550.01 1285.97 549.12 1285.97 549.12C1285.52 542.34 1265.19 484.62 1265.19 484.62C1264.94 483.676 1264.34 482.862 1263.51 482.344C1262.68 481.826 1261.69 481.642 1260.73 481.83C1256.94 483.06 1255.09 487.83 1255.09 487.83C1252.76 492.14 1242.55 542.83 1242.55 542.83C1241.73 547.13 1238.55 547.13 1238.55 547.13C1236.46 546.81 1234.24 542.97 1234.24 542.97L1207 496.74C1201.36 487.79 1197.08 491.05 1197.08 491.05C1193.4 492.8 1194.15 497 1194.15 497L1198.85 528.85C1200.39 535.54 1198.38 534.8 1198.38 534.8C1192 534.32 1189.38 536.48 1189.38 536.48C1183.98 539.48 1185.28 548.62 1185.28 548.62C1185.39 549.282 1185.39 549.958 1185.28 550.62L1184.9 550.77C1170.95 552.3 1174.71 571.42 1174.71 571.42C1180.14 611.57 1218.39 643.95 1218.39 643.95C1233.04 653.05 1255.55 652.81 1255.55 652.81C1277.23 653.01 1288.73 641.07 1292.19 636.72C1292.96 635.72 1293.34 635.17 1293.34 635.17L1302.56 616.97C1318.12 582.15 1307.82 557.27 1307.82 557.27Z" fill="white"/>
<path d="M1184 548L1189 567" stroke="#4722E9" stroke-width="1.5" stroke-linecap="round" stroke-linejoin="round"/>
<path d="M1198 532L1205 558" stroke="#4722E9" stroke-width="1.5" stroke-linecap="round" stroke-linejoin="round"/>
<path d="M1284 531L1288.5 567.5" stroke="#4722E9" stroke-width="1.5" stroke-linecap="round" stroke-linejoin="round"/>
<path d="M1202.49 691.73C1202.49 691.73 1265.23 703.21 1314.13 670.64L1373.81 937.54L1203.13 971.34L1202.49 691.73Z" fill="#55BC9F"/>
<path d="M208.079 645.516C209.079 639.037 184.791 629.913 153.832 625.137C122.873 620.361 96.965 621.741 95.9654 628.22C94.9659 634.699 119.253 643.823 150.212 648.6C181.172 653.376 207.08 651.995 208.079 645.516Z" fill="#55BC9F"/>
<path d="M139.91 617.15C139.91 617.15 124 610 116 599L113.88 605.76L25.12 890.76L164.64 917.16L199 618.59C199 618.59 164 629 139.91 617.15Z" fill="white"/>
<path d="M96 627.15C96 627.15 150.86 659.58 208 645.91L171.85 917L0 889.78L96 627.15Z" fill="#DF5751"/>
<path d="M138.12 486.38C138.12 486.38 150.59 479.19 159.7 482.54C159.7 482.54 187.04 470.54 209.1 485.42C209.1 485.42 216.77 490.69 210.54 494.53C210.54 494.53 208.14 495.97 202.86 495.01C202.86 495.01 198.55 494.01 191.35 496.01C191.35 496.01 181.28 497.93 175.05 505.6C175.05 505.6 167.38 514.71 167.86 525.26C167.86 525.26 168.34 540.61 180.32 545.88C180.32 545.88 189.44 550.2 198.07 549.72C198.07 549.72 212.46 548.28 217.73 537.72C218.066 536.853 218.661 536.112 219.434 535.596C220.207 535.08 221.121 534.816 222.05 534.84C222.05 534.84 227.32 534.84 228.28 543C228.28 543 232.6 559.3 225.88 581.36C225.88 581.36 220.61 597.19 208.14 605.82C208.14 605.82 196.63 614.45 187.04 616.82C187.04 616.82 172.17 622.58 148.19 615.38C139.632 612.769 131.657 608.535 124.7 602.91C124.7 602.91 106.47 589 97.36 561.67C97.36 561.67 91.61 547.76 99.76 523.78C99.76 523.78 106.47 500.78 127.09 488.78C127.09 488.78 133.33 485.9 138.12 486.38Z" fill="white"/>
<path d="M161.5 481.5C161.5 481.5 140.76 485.18 127.81 514.91" stroke="#4722E9" stroke-width="1.5" stroke-linecap="round" stroke-linejoin="round"/>
<path d="M138.5 485.5C138.5 485.5 120.38 498.85 115.1 513.23" stroke="#4722E9" stroke-width="1.5" stroke-linecap="round" stroke-linejoin="round"/>
<path d="M1016.48 674.334C1048.44 669.431 1073.55 660.199 1072.56 653.713C1071.56 647.228 1044.84 645.945 1012.87 650.849C980.905 655.752 955.796 664.984 956.791 671.469C957.786 677.955 984.507 679.237 1016.48 674.334Z" fill="#55BC9F"/>
<path d="M963 911.78L1107 902.78L1052.55 622L1051.13 624C1049.9 625.46 1048.59 626.88 1047.13 628.27L1042.99 633.19C1042.99 633.19 1026.44 654.19 978.91 640.36C976.39 639.42 974.029 638.097 971.91 636.44V641.79L963 911.78Z" fill="white"/>
<path d="M956.44 670.48C956.44 670.48 1020.71 684.58 1072.61 654.09L1122.68 923.25L945 949.87L956.44 670.48Z" fill="#DF5751"/>
<path d="M936.08 525.43L934.43 484.64C934.43 484.64 933.1 474 938.4 474C938.4 474 938.4 467.37 940.4 464.72C940.4 464.72 941.73 462.06 944.4 462.06C944.4 462.06 943.74 454.77 947.06 453.44C947.06 453.44 952.36 450.79 956.34 458.08C956.34 458.08 972.26 491.91 976.9 510.48C976.9 510.48 978.23 514.48 980.22 514.48C980.22 514.48 983.53 515.14 986.22 509.83C986.22 509.83 992.85 491.93 1020.04 494.58C1025.88 495.606 1031.39 498.005 1036.12 501.58C1040.84 505.155 1044.65 509.803 1047.23 515.14C1047.23 515.14 1051.88 526.42 1046.57 529.07C1046.57 529.07 1045.24 529.73 1042.57 527.74C1039.9 525.75 1037.93 521.74 1030.63 519.12C1030.63 519.12 1021.35 514.48 1009.41 521.77C1009.41 521.77 994.82 529.07 995.48 542.33C995.48 542.33 995.48 561.57 1017.37 562.23C1017.37 562.23 1034.61 564.88 1039.92 541.01C1039.92 541.01 1040.58 529.73 1045.22 529.73C1045.22 529.73 1055.22 528.4 1057.16 547.64C1057.16 547.64 1064.46 586.77 1051.16 613.3C1051.16 613.3 1041.16 636.51 1014.02 639.83C1014.02 639.83 977.54 647.12 951.68 613.3C951.68 613.3 933.77 594.06 935.76 552.3C935.75 552.29 937.08 537 936.08 525.43Z" fill="white"/>
<path d="M944.37 461.1L949.02 515.8" stroke="#4722E9" stroke-width="1.5" stroke-linecap="round" stroke-linejoin="round"/>
<path d="M938.4 473.25L941.06 516.48" stroke="#4722E9" stroke-width="1.5" stroke-linecap="round" stroke-linejoin="round"/>
</g>
<defs>
<clipPath id="clip0">
<rect width="1400" height="768" fill="white"/>
</clipPath>
</defs>
</svg>
